<?xml version="1.0" encoding="UTF-8"?>
<svg id="Layer_2" data-name="Layer 2" xmlns="http://www.w3.org/2000/svg" viewBox="0 0 628.6 163.12">
  <defs>
    <style>
      .cls-1 {
        fill: none;
      }

      .cls-2 {
        fill: #1e8e6c;
      }

      .cls-3 {
        fill: #30313a;
      }
    </style>
  </defs>
  <g id="Layer_1-2" data-name="Layer 1">
    <g>
      <path class="cls-1" d="M52.35,48.15s0,.06,0,.09c0-.03,0-.06,0-.09Z"/>
      <path class="cls-1" d="M52.33,48.33s-.02.06-.02.09c0-.03.02-.06.02-.09Z"/>
      <path class="cls-1" d="M52.28,48.5s-.03.06-.04.09c.01-.03.03-.06.04-.09Z"/>
      <path class="cls-1" d="M36.29,72.88s.02,0,.04-.01c-.01,0-.02,0-.04.01Z"/>
      <path class="cls-1" d="M52.19,47.64s.03.05.04.08c-.01-.03-.03-.05-.04-.08Z"/>
      <path class="cls-1" d="M52.33,47.97s0,.06.01.09c0-.03,0-.06-.01-.09Z"/>
      <path class="cls-1" d="M52.07,47.5s.04.05.06.07c-.02-.02-.04-.05-.06-.07Z"/>
      <path class="cls-1" d="M52.27,47.8s.02.06.03.08c0-.03-.02-.06-.03-.08Z"/>
      <path class="cls-1" d="M51.93,47.39s-.01,0-.02-.01c.03.02.06.04.08.06-.02-.02-.04-.04-.06-.05Z"/>
      <path class="cls-1" d="M46.88,140.06s-.01.01-.02.02c0,0,.01-.01.02-.02Z"/>
      <path class="cls-1" d="M36.46,72.87s-.01,0-.02,0c0,0,.02,0,.03,0,0,0,0,0,0,0Z"/>
      <path class="cls-1" d="M36.52,72.9s.04.02.05.03c-.02-.01-.03-.02-.05-.03Z"/>
      <path class="cls-1" d="M36.67,73.08s.02.1,0,.14c.01-.05,0-.1,0-.14Z"/>
      <path class="cls-1" d="M36.59,72.94s.05.06.07.1c-.02-.04-.04-.07-.07-.1Z"/>
      <path class="cls-1" d="M99.24,82.9s-.01.04-.02.07c0-.04.02-.07.04-.1,0,.01-.02.02-.02.04Z"/>
      <path class="cls-1" d="M99.21,83.2c-.01-.06-.01-.12,0-.18,0,.06,0,.12,0,.18Z"/>
      <path class="cls-1" d="M99.46,82.66s.06-.03.09-.04c-.03.01-.06.02-.09.04Z"/>
      <path class="cls-1" d="M80.59,82.61c-.04.05-.08.11-.09.17.02-.07.05-.12.09-.17Z"/>
      <path class="cls-1" d="M77.91,78s-.02.06-.03.09c0-.03.01-.06.03-.09Z"/>
      <path class="cls-1" d="M77.89,78.38c.02.06.05.12.09.17-.04-.05-.07-.11-.09-.17Z"/>
      <path class="cls-1" d="M95.76,99.7c.06,0,.12.02.17.05-.05-.04-.11-.06-.17-.05Z"/>
      <path class="cls-1" d="M95.98,99.79s-.02,0-.02-.02c.03.02.03.06.05.09-.01-.03,0-.06-.03-.08Z"/>
      <path class="cls-1" d="M96.04,99.97s0,.02,0,.03c0-.01,0-.02,0-.03Z"/>
      <path class="cls-1" d="M53.4,44.7s-.03.04-.05.06c.02-.02.04-.03.05-.06Z"/>
      <path class="cls-1" d="M53.32,44.78s-.07.04-.11.05c.04,0,.07-.03.11-.05Z"/>
      <path class="cls-1" d="M99.67,82.59s.04,0,.06,0c-.02,0-.04,0-.06,0Z"/>
      <path class="cls-1" d="M53.44,44.59s0,0,0,0c0,.01,0,.03-.01.04,0-.01.01-.02.01-.04Z"/>
      <path class="cls-1" d="M53.21,44.83s-.08.01-.12,0c.04,0,.08,0,.12,0Z"/>
      <path class="cls-1" d="M47.33,45.15s-.04.06-.05.1c.01-.04.03-.07.05-.1Z"/>
      <path class="cls-1" d="M40.44,52.18s.03-.02.04-.03c-.01,0-.03.02-.04.03Z"/>
      <path class="cls-1" d="M99.32,82.78s.04-.05.06-.07c-.02.02-.04.04-.06.07Z"/>
      <path class="cls-1" d="M47.27,45.32s0-.03,0-.05c0,.02,0,.03,0,.05Z"/>
      <path class="cls-1" d="M47.28,45.39s0-.01,0-.02c0,0,0,0,0,0,0,0,0,0,0,.01Z"/>
      <path class="cls-1" d="M47.35,45.5s-.02-.01-.02-.02c0,0,.01.02.02.02Z"/>
      <path class="cls-1" d="M47.35,45.12s.07-.05.11-.07c-.04.01-.08.04-.11.07Z"/>
      <path class="cls-1" d="M44.68,128.63s.03-.03.04-.05c-.01.01-.03.02-.04.04,0,0,0,0,0,0Z"/>
      <path class="cls-1" d="M13.77,103.55s.07.05.08.1c0-.05-.04-.08-.08-.1Z"/>
      <path class="cls-1" d="M7.55,73.07s.03.09.02.14c.02-.05,0-.1-.02-.14Z"/>
      <path class="cls-1" d="M40.57,52.04s0,.01,0,.02c0,0,0,0,0,0,0,0,0,0,0-.01Z"/>
      <path class="cls-1" d="M44.77,128.54s.1-.02.14,0c-.05-.02-.1-.02-.14,0Z"/>
      <path class="cls-1" d="M13.68,103.53s.03,0,.05,0c-.01,0-.02-.01-.04,0,0,0,0,0-.01,0Z"/>
      <path class="cls-1" d="M80.49,82.99s0-.01,0-.02c0,0,0,0,0,0,0,0,0,0,0,.01Z"/>
      <path class="cls-1" d="M80.62,83.2s-.03-.03-.04-.04c.01.01.02.03.04.04Z"/>
      <path class="cls-1" d="M80.48,82.89s0-.06,0-.09c0,.03,0,.06,0,.09Z"/>
      <path class="cls-1" d="M80.62,82.57c.05-.05.12-.09.19-.1-.08.02-.14.06-.19.1Z"/>
      <path class="cls-1" d="M40.42,52.19s-.1.02-.14,0c.05.02.1.01.14,0Z"/>
      <path class="cls-1" d="M40.54,52.1s-.01.02-.02.03c0,0,.02-.02.02-.03Z"/>
      <path class="cls-1" d="M9.12,51.2s-.04-.04-.05-.07c.01.03.03.05.05.07Z"/>
      <path class="cls-1" d="M11.28,113.77s-.01,0-.02,0c0,0,.01,0,.02,0Z"/>
      <path class="cls-1" d="M9.43,51.36s-.04,0-.05,0c.02,0,.04,0,.05,0Z"/>
      <path class="cls-1" d="M.38,80.73s-.06.07-.11.08c.04-.02.08-.04.11-.08Z"/>
      <path class="cls-1" d="M.08,80.78s-.02-.01-.02-.02c0,0,.01.01.02.02Z"/>
      <path class="cls-1" d="M.21,80.83s.02,0,.03,0c-.03,0-.05,0-.08,0,.02,0,.03.02.05.02Z"/>
      <path class="cls-1" d="M11.5,113.63s0,.02-.01.02c0,0,.01-.01.01-.02Z"/>
      <path class="cls-1" d="M11.44,113.71s0,0,0,0c0,0-.01,0-.02.01,0,0,0,0,.01,0Z"/>
      <path class="cls-1" d="M7.32,73.01s.07-.03.11-.02c-.04,0-.08,0-.11.02Z"/>
      <path class="cls-1" d="M16.21,50.26s0,.02,0,.03c0-.01,0-.02,0-.03Z"/>
      <path class="cls-1" d="M16.18,50.12s.02.04.03.06c0,0,0-.02,0-.03,0-.02-.02-.02-.03-.04Z"/>
      <path class="cls-1" d="M16.05,50.06s.08.01.11.04c-.03-.02-.07-.04-.11-.04Z"/>
      <path class="cls-1" d="M7.45,72.99s.04.02.06.04c-.01-.01-.02-.03-.04-.04,0,0-.01,0-.02,0Z"/>
      <path class="cls-1" d="M9.05,51.07s-.02-.09-.02-.14c0,.05,0,.1.02.14Z"/>
      <path class="cls-1" d="M9.02,50.87c0-.07.03-.13.06-.19-.04.06-.06.12-.06.19Z"/>
      <path class="cls-1" d="M9.21,51.29s.02,0,.03.01c-.02-.01-.04-.02-.06-.04,0,0,.01.02.02.02Z"/>
      <path class="cls-1" d="M58.25.01s-.06.05-.09.08c.03-.04.07-.07.11-.08,0,0-.02,0-.03,0Z"/>
      <path class="cls-1" d="M34.71,3s.06,0,.1.01c-.03,0-.06-.02-.1-.01Z"/>
      <path class="cls-1" d="M34.87,3.02c.05.02.1.05.15.09-.04-.04-.09-.07-.15-.09Z"/>
      <path class="cls-1" d="M79.31,5.1s.02,0,.02,0c0,0-.02,0-.02,0Z"/>
      <path class="cls-1" d="M14.27,12.42s.04-.03.07-.04c-.02.01-.05.02-.07.04Z"/>
      <path class="cls-1" d="M14.53,12.33s.09.02.14.04c-.04-.02-.09-.04-.14-.04Z"/>
      <path class="cls-1" d="M14.39,12.35s.07-.01.11-.01c-.04,0-.07,0-.11.01Z"/>
      <path class="cls-1" d="M34.55,3.03s.05-.01.08-.02c-.03,0-.05,0-.08.02Z"/>
      <path class="cls-1" d="M34.43,3.12s0,0,0,0c.01-.02.03-.02.05-.04-.02.01-.03.02-.05.03Z"/>
      <path class="cls-1" d="M22.15,35.5s-.07-.03-.1-.05c.03.02.06.04.1.05Z"/>
      <path class="cls-1" d="M75.63,28.91s-.09.04-.15.04c.05,0,.11,0,.15-.04Z"/>
      <path class="cls-1" d="M22.54,35.51s.07-.03.1-.04c-.05.03-.1.04-.16.05.02,0,.04,0,.06,0Z"/>
      <path class="cls-1" d="M75.72,28.78s0,0,0,0c0,.06-.04.1-.08.14.04-.03.07-.08.08-.13Z"/>
      <path class="cls-1" d="M22.36,35.53s-.07,0-.11,0c.04,0,.07,0,.11,0Z"/>
      <path class="cls-1" d="M79.68,5.31s.01.08,0,.12c0-.04,0-.08,0-.12Z"/>
      <path class="cls-1" d="M79.43,5.09s0,0,0,0c.02,0,.03,0,.05.01-.01,0-.03-.01-.04-.01Z"/>
      <path class="cls-1" d="M79.54,5.13s.04.03.05.04c-.02-.02-.03-.03-.05-.04Z"/>
      <path class="cls-1" d="M79.62,5.21s.03.05.04.08c-.01-.03-.02-.06-.04-.08Z"/>
      <path class="cls-1" d="M58.36,0s.05,0,.08.01c-.03-.01-.05-.01-.08-.01Z"/>
      <path class="cls-1" d="M77.88,78.32s-.01-.08-.01-.12c0,.01,0,.02,0,.03,0,.03.01.06.02.09Z"/>
      <path class="cls-1" d="M14.15,12.66s0-.02,0-.03c0,.01,0,.02,0,.03Z"/>
      <path class="cls-1" d="M14.19,12.52s0,0,0,0c0-.02.02-.03.03-.05-.01.01-.02.02-.03.04Z"/>
      <path class="cls-1" d="M78.19,77.73s-.04.02-.06.03c.02-.01.04-.02.06-.03Z"/>
      <path class="cls-1" d="M60.32,63.48s.09,0,.14.01c-.04-.01-.09-.02-.14-.01Z"/>
      <path class="cls-1" d="M56.74,52.35s.04.02.06.04c-.02-.02-.04-.03-.06-.04Z"/>
      <path class="cls-1" d="M79.04,68.45s.02,0,.03,0c-.01,0-.02,0-.03,0Z"/>
      <path class="cls-1" d="M60.19,63.52s-.03.03-.05.04c.02-.01.03-.03.05-.04,0,0,0,0,0,0Z"/>
      <path class="cls-1" d="M79.16,68.48s-.01,0-.02,0c.01,0,.02.01.04.02,0,0-.01-.01-.02-.01Z"/>
      <path class="cls-1" d="M56.9,52.61c0,.06,0,.13-.02.19.02-.06.02-.13.02-.19Z"/>
      <path class="cls-1" d="M56.81,52.41s.07.1.08.16c-.02-.06-.04-.11-.08-.16Z"/>
      <path class="cls-1" d="M60.02,63.72s.04-.09.07-.12c-.03.04-.05.08-.07.12Z"/>
      <path class="cls-1" d="M59.66,71.84s.03-.08.03-.13c0,.05,0,.09-.03.13Z"/>
      <path class="cls-1" d="M60.51,63.52s.05.02.06.03c-.02-.02-.04-.02-.06-.03Z"/>
      <path class="cls-1" d="M79.21,68.52s.02.02.03.04c0-.01-.02-.03-.03-.04Z"/>
      <path class="cls-1" d="M21.97,35.38s-.05-.06-.08-.09c.02.03.05.06.08.09Z"/>
      <path class="cls-1" d="M79.26,68.6s.02.05.02.07c0-.03,0-.05-.02-.07Z"/>
      <path class="cls-1" d="M79.29,68.7s0,.07-.03.1c.02-.03.02-.07.03-.1Z"/>
      <path class="cls-1" d="M78.21,71.05s.01.03.02.05c0-.02-.02-.03-.02-.05Z"/>
      <path class="cls-1" d="M49.84,99.38s0,.03-.01.04c0-.01.01-.03.01-.04Z"/>
      <path class="cls-1" d="M49.59,99.63c-.05.01-.1,0-.15,0,.05.01.1.01.15,0Z"/>
      <path class="cls-1" d="M49.4,99.61c-.05-.02-.1-.05-.14-.09.04.05.09.07.14.09Z"/>
      <path class="cls-1" d="M49.67,99.59s-.04.02-.06.03c.02,0,.04-.02.06-.03Z"/>
      <path class="cls-1" d="M56.44,52.31s.03,0,.05,0c-.02,0-.03,0-.05,0Z"/>
      <path class="cls-1" d="M49.74,99.56s0,0,0-.01c0,0,0,.01-.01.02,0,0,0,0,0,0Z"/>
      <path class="cls-1" d="M56.67,52.31s0,0-.01,0c0,0,.01,0,.01,0,0,0,0,0,0,0Z"/>
      <path class="cls-1" d="M66.97,52.89s.08-.07.13-.09c-.05.02-.09.05-.13.09Z"/>
      <path class="cls-1" d="M67.01,53.4s-.02-.02-.03-.03c.01.01.02.02.03.03Z"/>
      <path class="cls-1" d="M66.9,53.25s.01.01.02.02c0-.02-.02-.04-.02-.05,0,.01,0,.02,0,.03Z"/>
      <path class="cls-1" d="M66.88,53.15s0-.05,0-.07c0,.02,0,.05,0,.07Z"/>
      <path class="cls-1" d="M66.89,53.03s.03-.07.05-.1c-.02.03-.04.06-.05.1Z"/>
      <path class="cls-1" d="M50.04,82.97s.02,0,.03.02c0,0-.02-.01-.03-.02Z"/>
      <path class="cls-1" d="M72.87,74.62s-.03,0-.05,0c.02,0,.03,0,.05,0Z"/>
      <path class="cls-1" d="M72.98,74.56s-.04.04-.06.05c0,0,.01,0,.02,0,.02-.01.03-.03.04-.04Z"/>
      <path class="cls-1" d="M49.81,83.08s.03-.07.06-.09c-.03.02-.05.05-.06.09Z"/>
      <path class="cls-1" d="M49.9,82.97s.04-.01.07-.01c-.01,0-.02,0-.03,0-.01,0-.02.01-.04.02Z"/>
      <path class="cls-1" d="M59.51,71.93s-.02,0-.03,0c0,0,.02,0,.03,0Z"/>
      <path class="cls-1" d="M59.64,71.86s-.04.03-.06.04c.02,0,.04,0,.05-.02,0,0,0-.02.01-.02Z"/>
      <path class="cls-1" d="M78.29,71.18s-.03-.02-.03-.03c0,.01.02.02.03.03Z"/>
      <path class="cls-1" d="M78.42,71.24s-.06-.02-.09-.03c0,0,0,0,0,0,.02.01.05.02.08.03Z"/>
      <path class="cls-1" d="M78.2,71.01s0-.04,0-.06c0,.02,0,.04,0,.06Z"/>
      <path class="cls-1" d="M77.97,77.92s.04-.06.07-.08c-.03.02-.05.05-.07.08Z"/>
      <path class="cls-3" d="M21.81,35.15c.02.05.05.1.08.14.02.03.05.06.08.09.03.02.06.05.09.07.03.02.06.04.1.05.03.01.07.02.11.03.04,0,.07,0,.11,0,.04,0,.08,0,.11-.01.05-.01.11-.02.16-.05,1.39-.78,2.98-1.51,4.77-2.17,15.4-5.73,31.95-7.39,48.07-4.35,0,0,0,0,.01,0,.05,0,.11,0,.15-.04,0,0,0,0,0,0,.04-.03.07-.08.08-.14l3.96-23.34s0-.08,0-.12c0,0,0-.01-.01-.02-.01-.03-.02-.06-.04-.08,0-.01-.02-.02-.03-.03-.02-.02-.03-.03-.05-.04-.02-.01-.04-.02-.06-.02-.02,0-.03-.01-.05-.01-.03,0-.06,0-.09,0,0,0-.02,0-.02,0-.04.01-.08.03-.11.05l-8.35,6.81c-.18.15-.24.4-.14.62.24.53.78,1.2.9,1.61,1.16,4.01-1.95,8.1-6.24,6.08-2.26-1.06-3.3-2.82-3.14-5.27,0-.13.06-.26.14-.36l2.11-2.8c.16-.21.18-.49.05-.72L58.55.1s-.07-.07-.11-.09c-.03-.01-.05-.01-.08-.01-.03,0-.05,0-.08,0-.04.02-.09.04-.11.08l-6.97,11.01c-.25.38-.19.89.13,1.22,1.67,1.7,2.25,3.3,1.74,4.78-1.33,3.83-5.54,5.15-8.9,2.88-3.06-2.07-2.04-5.04-.43-7.62.12-.18.09-.42-.07-.58l-8.65-8.66s-.09-.07-.15-.09c-.02,0-.04,0-.06-.01-.03,0-.06-.02-.1-.01-.03,0-.05.01-.08.02-.03,0-.05,0-.08.02-.03.01-.05.03-.08.05-.02.01-.04.02-.05.04-.04.04-.07.09-.09.15l-4.23,11.81c-.1.28.03.59.31.71.96.43,1.76,1.07,2.4,1.93,3.17,4.27-3.36,9.56-7.35,6.35-1.92-1.54-2.31-3.65-1.16-6.32.11-.25,0-.54-.24-.66l-9.39-4.72s-.09-.04-.14-.04c-.01,0-.02,0-.03,0-.04,0-.07,0-.11.01-.02,0-.03.02-.05.03-.02.01-.05.02-.07.04-.02.02-.03.04-.05.06-.01.02-.03.03-.03.05-.02.03-.02.07-.03.1,0,.01,0,.02,0,.03,0,.05,0,.1.02.14l7.64,22.35Z"/>
      <path class="cls-3" d="M79.33,5.1s.06,0,.09,0c-.03,0-.06,0-.09,0Z"/>
      <path class="cls-3" d="M79.67,5.29s0,.01.01.02c0,0,0-.01-.01-.02Z"/>
      <path class="cls-3" d="M79.62,5.2s-.02-.02-.03-.03c.01.01.03.02.03.03,0,0,0,0,0,0Z"/>
      <path class="cls-3" d="M79.47,5.11s.04.01.06.02c-.02-.01-.04-.02-.06-.02Z"/>
      <path class="cls-3" d="M58.28,0s.05,0,.08,0c-.03,0-.05,0-.08,0Z"/>
      <path class="cls-3" d="M58.47.02s-.02,0-.03,0c.04.02.08.04.11.09-.02-.03-.05-.06-.08-.08Z"/>
      <path class="cls-3" d="M34.86,3.02s-.04,0-.06,0c.02,0,.04,0,.06.01,0,0,0,0,0,0Z"/>
      <path class="cls-3" d="M79.2,5.15s.07-.04.11-.05c-.04.01-.07.03-.11.05Z"/>
      <path class="cls-3" d="M22.05,35.45s-.06-.04-.09-.07c.03.03.06.05.09.07Z"/>
      <path class="cls-3" d="M21.85,35.25s.03.03.04.05c-.03-.04-.07-.09-.08-.14.01.03.03.07.04.1Z"/>
      <path class="cls-3" d="M14.17,12.8s-.02-.09-.02-.14c0,.05,0,.09.02.14Z"/>
      <path class="cls-3" d="M22.48,35.52s-.08.01-.11.01c.04,0,.08,0,.11-.01Z"/>
      <polygon class="cls-3" points="75.48 28.95 75.48 28.95 75.47 28.95 75.48 28.95"/>
      <path class="cls-3" d="M22.26,35.53s-.07-.02-.11-.03c.03.01.07.02.11.03Z"/>
      <path class="cls-3" d="M75.64,28.91s0,0,0,0c0,0,0,0,0,0Z"/>
      <path class="cls-3" d="M34.47,3.09s.05-.04.08-.05c-.03.01-.05.03-.08.05Z"/>
      <path class="cls-3" d="M14.22,12.48s.03-.04.05-.06c-.02.02-.03.04-.05.06Z"/>
      <path class="cls-3" d="M14.38,12.35s-.03.02-.04.03c.02,0,.03-.02.05-.03,0,0,0,0,0,0Z"/>
      <path class="cls-3" d="M14.16,12.63s.01-.07.03-.1c-.02.03-.02.07-.03.1Z"/>
      <path class="cls-3" d="M34.33,3.27c.02-.05.05-.1.09-.15-.04.04-.07.09-.09.15Z"/>
      <path class="cls-3" d="M14.49,12.34s.02,0,.03,0c-.01,0-.02,0-.03,0Z"/>
      <path class="cls-3" d="M34.63,3.01s.05-.02.08-.02c-.03,0-.05,0-.08.02Z"/>
      <path class="cls-3" d="M101.89,60.9c-2.27-1.85-6.41-4.48-9.58-7.6-.26-.25-.4-.6-.4-.96v-2.51c0-.32-.1-.63-.28-.89-1.78-2.54-3.99-4.14-7.3-6.62-2.09-1.57-2.06-2.87-2.42-5.2-.06-.34-.18-.67-.35-.96-1.39-2.33-3.36-3.85-5.92-4.55-4.83-1.33-10.3-1.97-16.41-1.91-8.64.08-17.04,1.31-25.22,3.69-10.19,2.97-19.06,8.42-24.92,17.31-.04.06-.06.12-.06.19,0,.02,0,.04,0,.06,0,.05,0,.09.02.14,0,.02.01.04.03.06.01.03.03.05.05.07.02.02.04.04.06.06.02.01.04.02.06.04.04.02.09.04.13.05.02,0,.04,0,.05,0,.07,0,.13,0,.19-.03,1.86-.82,4-1.24,6.43-1.26.04,0,.08.01.11.04,0,0,.01.02.02.03.01.01.02.02.03.04,0,0,0,.02,0,.03,0,0,.01.02.01.03,0,.02,0,.03-.01.05,0,.01,0,.02,0,.03-.02.03-.04.06-.08.08-1.03.46-2.07,1.13-3.12,2.02C4.45,59.71.11,69.13,0,80.64c0,.05.03.09.06.12,0,0,.01.02.02.02.02.02.05.02.08.03.03,0,.06.02.08,0,.01,0,.02,0,.03,0,.04-.02.08-.04.11-.08,1.61-3.01,3.92-5.58,6.94-7.72.03-.02.07-.03.11-.02,0,0,.01,0,.02,0,0,0,.01,0,.02,0,.02,0,.02.02.04.04.01.01.03.01.04.03,0,0,0,0,0,.01.02.04.04.09.02.14-.29.76-1,1.65-1.29,2.27-4.93,10.85-4.04,22.5,1.54,33.12,1.18,2.25,2.28,3.95,3.3,5.09.04.04.09.06.15.07,0,0,.01,0,.02,0,.05,0,.11-.02.15-.05,0,0,.01,0,.02-.01.02-.02.03-.03.04-.05,0,0,.01-.01.01-.02.01-.03.02-.06.02-.09-.13-3.24.56-6.55,2.06-9.92.02-.04.06-.07.1-.08,0,0,0,0,.01,0,.01,0,.03,0,.04,0,.01,0,.03,0,.04,0,0,0,0,0,0,.01.04.02.07.05.08.1,1.66,9.99,5.39,17.58,13.9,23.36,1.6,1.08,3.63,2.28,6.1,3.58,5.31,2.78,9.06,5.26,12.55,9.53.02.03.06.05.09.07,0,0,.02,0,.02,0,.03.01.06.02.09.02.02,0,.03,0,.05,0,.02,0,.04,0,.06,0,.02,0,.04-.02.06-.03.01,0,.03-.01.04-.02.02-.02.04-.04.06-.07,0,0,.01-.01.02-.02.02-.03.03-.07.03-.11.33-3.96-.42-7.69-2.23-11.17-.02-.05-.02-.1,0-.14,0,0,0,0,0,0,0-.02.03-.03.04-.04.01-.01.02-.03.04-.04,0,0,0,0,0,0,.04-.02.09-.03.14,0,8.22,3.68,15.83,9.72,20.28,17.55,2.84,4.99,5.08,10.77,5.18,16.72,0,.05.01.09.03.13,0,.02.02.03.03.04.01.02.03.05.05.06.02.01.04.02.05.03.02.01.04.02.06.03.02,0,.05.01.08.01.02,0,.03,0,.05,0,.05,0,.09-.01.14-.03.11-.05.24-.19.38-.42,8.15-13.65,5.19-29.28-5.15-40.84-4.85-5.43-10.18-9.3-15.77-13.81-5.33-4.31-10.34-9.84-12.74-16.21-2.25-5.97-2.55-12.16-.9-18.59.01-.05,0-.1,0-.14,0-.01,0-.02-.01-.03-.02-.04-.04-.07-.07-.1,0,0-.01-.01-.02-.02-.02-.01-.03-.02-.05-.03-.02,0-.03-.02-.05-.02,0,0-.02,0-.03,0-.04,0-.08,0-.12,0-.01,0-.02,0-.04.01-.04.02-.09.04-.12.08-2.92,3.43-4.96,7.34-6.13,11.74-.26.98-.55,1.83-.87,2.54,0,.03-.03.05-.06.04s-.05-.03-.04-.06c-.26-5.29.8-10.25,3.19-14.88,3.81-7.39,10.96-13.58,15.97-18.74,1.49-1.54,2.81-3.18,3.97-4.92.02-.03.03-.06.05-.09.01-.03.03-.06.04-.09.01-.03.02-.06.03-.09,0-.03.02-.06.02-.09,0-.03,0-.06,0-.09,0-.03,0-.06,0-.09,0-.03,0-.06,0-.09,0-.03,0-.06-.01-.09,0-.03-.02-.06-.03-.09,0-.03-.02-.06-.03-.08-.01-.03-.03-.05-.04-.08-.01-.03-.03-.05-.04-.08-.02-.03-.04-.05-.06-.07-.02-.02-.04-.05-.06-.07-.02-.02-.05-.04-.07-.06-.03-.02-.05-.05-.08-.06-1.4-.88-2.88-1.49-4.45-1.82-.04,0-.08-.03-.11-.06,0,0-.02-.01-.02-.02-.02-.03-.04-.06-.05-.09,0,0,0,0,0-.01,0,0,0,0,0,0,0-.02,0-.03,0-.05,0-.02,0-.03,0-.05,0,0,0,0,0,0,0,0,0,0,0-.01,0-.04.03-.07.05-.1,0,0,.01-.02.02-.02.03-.03.07-.05.11-.07,1.94-.46,3.82-.54,5.63-.22.04,0,.08,0,.12,0,0,0,0,0,0,0,.04,0,.07-.03.11-.05.01,0,.02-.02.03-.03.02-.02.04-.04.05-.06.01-.02.02-.05.03-.07,0-.01.01-.02.01-.04.01-.08,0-.16-.05-.23-2.38-3.27-5.57-4.73-9.58-4.4-6.27.52-4.72,8.03-3.24,11.94.02.05.01.1,0,.15,0,0,0,0,0,.01,0,0,0,0,0,0,0,.02-.02.03-.02.04,0,.01-.01.02-.02.03,0,0-.02.02-.03.02-.01,0-.03.02-.04.03,0,0,0,0,0,0,0,0,0,0-.01,0-.05.01-.1.02-.14,0-2.99-1.07-4.07-5.95-3.83-8.7.59-6.81,7.02-8.7,12.65-6.62,2.76,1.02,5.24,2.51,7.44,4.47.15.13.37.13.51,0,5.35-5.06,14.05-3.47,19.59.57.3.21.64.36,1,.42l.95.16c.19.03.38.1.55.2,2.34,1.36,8.89,5.37,9.46,8.54.04.21-.02.43-.17.6l-.74.83c-.14.16-.14.4,0,.57.7.82,1.24,1.37,1.61,1.67,5.95,4.81,10.25,8.31,12.91,10.5.3.24.49.45.57.62.03.06.03.12.03.17,0,0,0,.01,0,.02,0,.02,0,.03-.01.04,0,.03-.01.05-.02.07,0,.02-.02.04-.04.06-.01.02-.03.04-.04.05-.02.02-.04.03-.06.05-.01,0-.02.02-.04.03,0,0-.01,0-.02,0-.05.02-.11.04-.17.03-3.38-.36-6.39-.37-9.02-.02-.12.02-.25,0-.36-.05l-2.62-1.07s-.09-.03-.14-.03c-.02,0-.03,0-.05,0-.03,0-.06,0-.09.02-.03,0-.05.02-.08.03-.02.01-.04.03-.06.04-.02.02-.04.04-.05.05-.02.02-.03.04-.05.07-.01.03-.02.05-.03.08,0,.01,0,.03-.01.04,0,.05,0,.1,0,.14.41,1.7,1.54,3.47,3.15,4.24,4.08,1.96,7.15,4.98,3.34,9.58-2.02,2.44-7.13,4.07-10.08,4.62-.36.06-.72.06-1.07-.02l-4.39-.97c-.08-.02-.14-.06-.19-.1-.01-.01-.02-.02-.04-.04-.04-.05-.08-.11-.09-.17,0,0,0,0,0-.01,0,0,0,0,0,0,0-.03,0-.06,0-.09,0-.03,0-.06,0-.09,0,0,0,0,0,0,0,0,0,0,0-.01.02-.06.05-.12.09-.17.01-.01.02-.03.04-.04.05-.05.11-.09.19-.1,2.54-.54,4.69-1.57,6.45-3.09.04-.04.06-.08.06-.13,0,0,0-.02,0-.03,0-.03-.02-.05-.03-.08-.01-.03-.02-.06-.04-.08,0,0-.01-.01-.02-.02-.04-.03-.09-.05-.14-.04l-7.24.65c-.58.05-1.15-.19-1.52-.64l-.38-.46c-.04-.05-.07-.11-.09-.17,0-.02,0-.04-.01-.07,0-.03-.02-.06-.02-.09,0-.01,0-.02,0-.03,0-.04.01-.07.02-.11,0-.03.01-.06.03-.09.01-.03.03-.05.05-.08.02-.03.04-.06.07-.08,0,0,.01-.02.02-.02.02-.02.05-.03.08-.04.02-.01.04-.02.06-.03.06-.02.12-.04.19-.04,3.27-.03,6.45-.62,9.55-1.75.04-.01.07-.04.1-.06.01-.01.02-.02.03-.03,0-.01.02-.03.03-.05,0-.01,0-.03.01-.05,0-.02,0-.03,0-.05,0-.02,0-.03,0-.05,0-.01,0-.03-.01-.04-.01-.04-.04-.07-.06-.1-.08-.08-.2-.11-.34-.1-3.65.35-6.92.25-9.82-.3-.37-.07-.61-.42-.55-.79l.08-.47c.06-.33.36-.57.7-.55,2.77.22,5.45.04,8.04-.53.06,0,.11-.05.11-.11s-.05-.11-.11-.11l-7.7-1.31s-.05-.01-.08-.03c0,0,0,0,0,0-.02,0-.03-.02-.04-.03-.01-.01-.03-.02-.03-.03-.01-.01-.02-.03-.02-.04,0-.02-.02-.03-.02-.05,0-.02,0-.03,0-.05,0-.02,0-.04,0-.06,0,0,0,0,0-.01,0-.03.01-.05.03-.08l1.03-2.06s.02-.07.03-.1c0-.01,0-.02,0-.03,0-.03,0-.05-.02-.07,0-.01-.01-.02-.02-.04,0-.01-.02-.03-.03-.04s-.02-.02-.04-.03c-.01,0-.02-.01-.04-.02-.02-.01-.05-.02-.07-.02-.01,0-.02,0-.03,0-.04,0-.07,0-.1.03-2.48,1.27-4.46,3.3-5.96,6.08,0,.02-.02.03-.04.04,0,0-.01,0-.02,0-.02,0-.03,0-.05.01-.02,0-.03,0-.05,0,0,0-.01,0-.02,0-.02,0-.03-.02-.04-.04l-.48-.71c-.33-.49-.74-.93-1.22-1.28-3.83-2.8-8.05-4.63-10.39-8.93-.02-.04-.05-.08-.09-.1-.02-.02-.04-.02-.06-.03-.02,0-.04-.02-.06-.03-.05-.01-.09-.02-.14-.01-.04,0-.09.02-.13.04-.02.01-.03.03-.05.04-.02.01-.04.03-.05.04-.03.03-.05.07-.07.12-.8,2.7-.91,5.36-.34,7.99,0,.04,0,.09-.03.13,0,0,0,.02-.01.02,0,0,0,.02-.01.02-.01.01-.03.01-.05.02-.02,0-.03.03-.04.03,0,0-.02,0-.03,0,0,0-.02,0-.03,0-.04,0-.08-.02-.11-.05-5.01-5.09-5.17-12.76-2.49-19.08.02-.06.02-.13.02-.19,0-.02,0-.03-.01-.05-.02-.06-.04-.11-.08-.16,0,0,0,0,0-.01-.02-.02-.04-.03-.06-.04-.02-.01-.04-.03-.06-.04,0,0-.01,0-.01,0-.06-.02-.12-.02-.18-.01-.02,0-.03,0-.05,0-.06.02-.12.04-.17.09-.72.77-1.71,1.66-2.96,2.66-6.98,5.59-13.02,16.55-12.78,25.35.2,7.42,4,13.64,8.73,19.11.04.04.09.07.14.09.01,0,.03,0,.04.01.05.01.1.01.15,0,0,0,.01,0,.02,0,.02,0,.04-.02.06-.03.02-.01.04-.02.06-.03,0,0,0-.01.01-.02.04-.03.06-.08.08-.12,0-.01.01-.03.01-.04.01-.05.02-.11,0-.17-1.35-5.15-1.36-10.53-.03-16.13,0-.04.03-.07.06-.09,0,0,.02-.01.03-.02.01,0,.02-.02.04-.02.01,0,.02,0,.03,0,.01,0,.02,0,.03,0,.01,0,.02.01.04.02.01,0,.02,0,.03.02.03.02.05.05.06.09.16.7.3,1.62.44,2.76,1.18,9.91,6.21,17.09,13.34,24.71,7.03,7.49,12.53,14.06,15.03,24.02,2.06,8.21,1.24,16.15-2.49,23.79-.01.03-.02.06-.02.1,0,.02,0,.04,0,.06,0,.02,0,.03,0,.05,0,.02.01.03.02.05,0,.02.02.03.03.05.01.01.02.02.04.03.01.01.03.03.05.04.03.02.06.03.09.03.02,0,.04.02.07.03.02.01.06,0,.1-.04,9.67-7.9,13.62-19.23,13.6-31.48,0-.05.02-.09.05-.13,0-.01.02-.02.03-.02.01,0,.02-.02.03-.03.01,0,.03,0,.05,0,.02,0,.03-.02.04-.02.02,0,.03,0,.04.01.01,0,.02,0,.04.01.04.02.08.05.1.09,1.4,3.01,2.02,5.95,1.86,8.81,0,.06.01.11.04.16,0,.01.01.02.02.03.03.04.07.09.12.11.02,0,.04.01.06.02.02,0,.04.01.06.02.06,0,.11-.01.16-.04.01,0,.02-.01.03-.02.05-.03.09-.07.11-.12,3.86-8.12,4.29-16.29,1.29-24.51-1.15-3.14-3.81-7.51-5-9.97-.02-.03-.02-.07-.02-.1,0-.01,0-.02,0-.03,0-.03,0-.05.02-.07,0,0,0-.01,0-.02,0,0,.01-.01.02-.02,0-.01.02-.03.03-.04s.03-.02.04-.03c0,0,.01-.01.02-.02,0,0,.01,0,.02,0,.02,0,.05-.01.07-.02.01,0,.02,0,.03,0,.04,0,.07,0,.1.03,1.11.58,3.92,2.36,4.07,3.66.04.33.11.56.22.69.02.02.04.04.07.06.02.02.04.03.06.04.02.01.04.01.07.02.02,0,.04.01.07.02.02,0,.05,0,.07,0,.02,0,.05,0,.07-.01.02,0,.04-.02.07-.03.03-.01.05-.03.08-.05.2-.19,1.17-.83,2.89-1.94,4.74-3.04,7.65-8.39,6.45-14.07-.44-2.1-.67-3.19-.68-3.25-.15-.69-.05-1.42.28-2.05,2.13-4.05,2.73-8.03,2.27-12.45-.16-1.51-.07-2.82.25-3.95.79-2.76-2.44-5.59-4.33-7.14ZM101.06,93.57s-.02.09-.05.13c0,0,0,.01,0,.02,0,0-.02.01-.02.02-.01.01-.03.03-.04.04-.02.01-.03.02-.05.03-.02,0-.03.01-.05.02-.02,0-.04,0-.06,0-.01,0-.02,0-.03,0,0,0,0,0-.02,0-.05,0-.09-.02-.13-.05-.26-.19-.46-.62-.6-1.28,0-.03-.02-.05-.03-.08-.01-.02-.02-.04-.03-.06-.01-.02-.03-.03-.04-.04-.02-.01-.03-.03-.05-.04-.02-.01-.04-.02-.06-.02-.02,0-.04-.01-.06-.01-.02,0-.04,0-.06,0-.03,0-.06,0-.09.01l-.2.07c-.09.04-.16.12-.16.22.03,2.95-.92,5.45-2.83,7.51-.04.05-.1.09-.15.12,0,0,0,0,0,0-.04.02-.09.03-.14.03-.02,0-.04.01-.06.01-.03,0-.07,0-.1-.02-.03,0-.06,0-.1-.02-.02,0-.03-.02-.05-.03-.04-.02-.09-.04-.12-.08,0,0,0,0,0,0-.05-.04-.09-.1-.12-.16-1.42-2.92-4.05-4.45-6.82-5.83-.04-.02-.08-.03-.13-.03,0,0-.01,0-.02,0-.04,0-.07,0-.11.01-.02,0-.03.02-.04.02-.02.01-.05.02-.07.04-.02.02-.03.04-.05.06,0,.01-.02.02-.03.04-.02.03-.03.07-.03.11,0,0,0,.01,0,.02,0,.04,0,.09.02.13l.51,1.5s.02.09.02.14c0,.02,0,.03,0,.05,0,.02,0,.04-.01.07,0,0,0,.01-.01.02-.01.02-.03.05-.04.07-.01.02-.02.04-.04.05-.02.02-.04.03-.05.04-.02.02-.04.03-.07.04,0,0-.01,0-.02.01-.02,0-.04,0-.06.01-.02,0-.03,0-.05,0-.05,0-.09,0-.14-.02-2.19-.77-4.89-2.15-5.74-4.56-.09-.27-.06-.57.08-.81.31-.49.99-1.04,2.05-1.64,4.37-2.48,8.06-4.16,11.07-5.06,5.13-1.53,5.55,6.15,5.29,9.17ZM102.84,77.24c-.05.32-.11.63-.17.92-.07.34-.14.66-.22.96-.07.28-.15.54-.23.78-.05.16-.1.31-.16.46-.02.05-.03.09-.05.14-.07.17-.14.33-.21.47,0,0,0,.01,0,.02-.11.23-.23.4-.34.52,0,0,0,0-.01.01-.11.12-.23.18-.33.16-.34-.05-.52-.9-.51-2.15,0,0,0,0,0,0,0-.24.01-.5.03-.76.04-.56.1-1.18.2-1.82.02-.16.05-.31.08-.47.06-.31.12-.6.18-.89.06-.28.13-.56.2-.81.29-1.02.62-1.79.92-2.1.08-.08.15-.13.22-.15.04-.01.07-.01.11,0,.55.09.67,2.21.28,4.75Z"/>
      <path class="cls-3" d="M50.07,82.99s.05.05.06.09c0-.04-.03-.07-.06-.09Z"/>
      <path class="cls-3" d="M56.48,52.3c.06,0,.12,0,.18.01-.06-.02-.12-.02-.18-.01Z"/>
      <path class="cls-3" d="M49.44,99.62s-.03,0-.04-.01c.01,0,.03,0,.04.01Z"/>
      <path class="cls-3" d="M16.21,50.19s0,.05,0,.07c0-.02.01-.03.01-.05,0-.01-.01-.02-.01-.03Z"/>
      <polygon class="cls-3" points="56.8 52.4 56.8 52.4 56.81 52.41 56.8 52.4"/>
      <path class="cls-3" d="M7.43,72.99s.01,0,.02,0c0,0-.01,0-.02,0Z"/>
      <path class="cls-3" d="M56.89,52.56s0,.03.01.05c0-.02,0-.03-.01-.05Z"/>
      <path class="cls-3" d="M56.67,52.31s.04.03.06.04c-.02-.01-.04-.03-.06-.04Z"/>
      <path class="cls-3" d="M16.16,50.1s.01.02.02.03c0,0-.01-.02-.02-.03Z"/>
      <path class="cls-3" d="M49.85,99.21c.02.06.01.11,0,.17.01-.05.02-.11,0-.17Z"/>
      <path class="cls-3" d="M49.83,99.42s-.04.09-.08.12c.04-.03.06-.08.08-.12Z"/>
      <path class="cls-3" d="M60.09,63.6s.04-.03.05-.04c-.02.01-.04.03-.05.04Z"/>
      <path class="cls-3" d="M49.73,99.56s-.04.02-.06.03c.02-.01.04-.02.06-.03Z"/>
      <path class="cls-3" d="M56.27,52.4s.11-.07.17-.09c-.06.02-.12.04-.17.09Z"/>
      <path class="cls-3" d="M60.19,63.52s.09-.04.13-.04c-.05,0-.09.02-.13.04Z"/>
      <path class="cls-3" d="M49.61,99.63s0,0,0,0c0,0-.01,0-.02,0,0,0,.01,0,.02,0Z"/>
      <path class="cls-3" d="M16.2,50.29s-.04.06-.08.08c.04-.02.06-.05.08-.08Z"/>
      <path class="cls-3" d="M59.37,71.88s.07.05.11.05c-.04,0-.08-.02-.11-.05Z"/>
      <path class="cls-3" d="M47.33,45.15s.01-.02.02-.02c0,0-.01.02-.02.02Z"/>
      <path class="cls-3" d="M78.2,70.95s.01-.06.02-.09c-.01.02-.02.05-.03.08,0,0,0,0,0,.01Z"/>
      <path class="cls-3" d="M40.52,52.13s-.02.02-.03.02c.01,0,.02-.01.03-.02Z"/>
      <path class="cls-3" d="M72.82,74.62s-.05-.02-.07-.04c.01.02.03.03.04.04,0,0,.01,0,.02,0Z"/>
      <path class="cls-3" d="M40.57,51.89s.01.1,0,.15c.01-.05.02-.1,0-.15Z"/>
      <path class="cls-3" d="M40.44,52.18s-.01,0-.02,0c0,0,0,0,.01,0,0,0,0,0,0,0Z"/>
      <path class="cls-3" d="M80.49,82.8s0-.01,0-.02c0,0,0,0,0,.01,0,0,0,0,0,0Z"/>
      <path class="cls-3" d="M80.59,82.61s.02-.03.04-.04c-.01.01-.02.02-.04.04Z"/>
      <path class="cls-3" d="M78.04,77.83s.06-.05.1-.07c-.03.01-.05.02-.08.04,0,0-.01.02-.02.02Z"/>
      <path class="cls-3" d="M80.49,82.97s0-.06,0-.09c0,.03,0,.06,0,.09Z"/>
      <path class="cls-3" d="M80.81,83.31c-.07-.02-.14-.06-.19-.1.05.05.11.09.19.1Z"/>
      <path class="cls-3" d="M78.25,71.14s-.02-.03-.02-.04c0,.02.01.03.02.04Z"/>
      <path class="cls-3" d="M72.91,74.61s-.03,0-.05.01c.02,0,.03,0,.05-.01Z"/>
      <path class="cls-3" d="M13.58,103.61s.06-.07.1-.08c-.04.01-.08.03-.1.08Z"/>
      <path class="cls-3" d="M13.73,103.53s.03,0,.05.01c0,0,0,0,0-.01-.01,0-.03,0-.04,0Z"/>
      <path class="cls-3" d="M49.97,82.96s.05,0,.07.01c-.01,0-.02-.02-.04-.02-.01,0-.02,0-.03,0Z"/>
      <path class="cls-3" d="M7.5,73.03s.03.02.04.04c0,0,0,0,0-.01-.01-.02-.03-.02-.04-.03Z"/>
      <path class="cls-3" d="M49.88,82.99s.02-.01.03-.02c-.01,0-.02,0-.03.02Z"/>
      <path class="cls-3" d="M59.66,71.84s0,.02-.01.02c0,0,0-.01.01-.02Z"/>
      <path class="cls-3" d="M77.87,78.2s.01-.07.02-.11c0,.04-.02.07-.02.11Z"/>
      <path class="cls-3" d="M47.27,45.37s0-.03,0-.05c0,.02,0,.03,0,.05Z"/>
      <path class="cls-3" d="M44.68,128.77s-.02-.1,0-.14c-.02.05-.02.1,0,.14Z"/>
      <path class="cls-3" d="M47.27,45.27s0-.01,0-.02c0,0,0,0,0,.01,0,0,0,0,0,0Z"/>
      <path class="cls-3" d="M44.72,128.58s.03-.04.05-.04c0,0,0,0,0,0-.02,0-.02.03-.04.04Z"/>
      <path class="cls-3" d="M59.58,71.9s-.04.03-.07.03c0,0,.02,0,.03,0,.02,0,.03-.02.04-.03Z"/>
      <path class="cls-3" d="M47.47,45.56s-.08-.03-.11-.06c.03.03.07.05.11.06Z"/>
      <path class="cls-3" d="M80.49,82.99c.02.06.05.12.09.17-.04-.05-.08-.11-.09-.17Z"/>
      <path class="cls-3" d="M99.21,83.02s0-.04.01-.06c0,.02-.01.04-.01.06Z"/>
      <path class="cls-3" d="M60.46,63.49s0,0,0,0c.02,0,.04.02.06.03-.02,0-.03-.02-.05-.03Z"/>
      <path class="cls-3" d="M9.62,51.32c-.06.03-.13.04-.19.03.06,0,.13,0,.19-.03Z"/>
      <path class="cls-3" d="M52.34,48.06s0,.06,0,.09c0-.03,0-.06,0-.09Z"/>
      <path class="cls-3" d="M99.26,82.86s.04-.06.06-.09c-.02.03-.04.05-.06.09Z"/>
      <path class="cls-3" d="M11.3,113.77c.05,0,.1-.02.13-.05-.04.04-.1.05-.15.05,0,0,.01,0,.02,0Z"/>
      <path class="cls-3" d="M95.93,99.75s.02.01.03.02c0,0-.02-.01-.03-.02Z"/>
      <path class="cls-3" d="M52.31,48.42s-.01.06-.03.09c.01-.03.02-.06.03-.09Z"/>
      <path class="cls-3" d="M99.39,82.71s.05-.04.08-.05c-.03.02-.05.03-.08.05Z"/>
      <path class="cls-3" d="M77.88,78.32s0,.04.01.07c0-.02,0-.04-.01-.07Z"/>
      <path class="cls-3" d="M9.37,51.35s-.09-.02-.13-.05c.04.02.09.04.13.05Z"/>
      <path class="cls-3" d="M96.04,100c0,.06-.03.12-.08.17.05-.04.07-.1.08-.17Z"/>
      <path class="cls-3" d="M52.34,48.24s0,.06,0,.09c0-.03,0-.06,0-.09Z"/>
      <path class="cls-3" d="M96.05,99.94s-.03-.05-.04-.07c.01.03.03.07.03.1,0,0,0-.02,0-.03Z"/>
      <path class="cls-3" d="M53.21,44.83s0,0,0,0c0,0,0,0,0,0Z"/>
      <path class="cls-3" d="M53.32,44.78s.02-.02.03-.03c-.01,0-.02.02-.03.03,0,0,0,0,0,0Z"/>
      <path class="cls-3" d="M47.28,45.39s.03.07.05.09c-.02-.03-.04-.06-.05-.09Z"/>
      <path class="cls-3" d="M52.13,47.57s.04.05.06.07c-.02-.03-.04-.05-.06-.07Z"/>
      <path class="cls-3" d="M.1,80.81s.04,0,.05,0c-.03,0-.06-.01-.08-.03,0,0,.01.02.02.02Z"/>
      <path class="cls-3" d="M9.18,51.27s-.04-.04-.06-.06c.02.02.04.04.06.06Z"/>
      <path class="cls-3" d="M.27,80.81s-.02,0-.03,0c.01,0,.02,0,.03,0Z"/>
      <path class="cls-3" d="M52,47.44s.05.04.07.06c-.02-.02-.05-.04-.07-.06Z"/>
      <path class="cls-3" d="M53.39,44.36c.05.07.07.15.05.23.01-.08,0-.16-.05-.23Z"/>
      <path class="cls-3" d="M99.6,82.6s-.03.01-.04.02c.03-.01.07-.02.11-.02-.02,0-.05,0-.07,0Z"/>
      <path class="cls-3" d="M.06,80.76s-.06-.07-.06-.12c0,.05.03.09.06.12Z"/>
      <path class="cls-3" d="M99.72,82.59c.06,0,.12.01.18.03-.06-.02-.12-.03-.18-.03Z"/>
      <path class="cls-3" d="M11.26,113.76c-.05,0-.11-.03-.15-.07.04.04.09.06.15.07Z"/>
      <path class="cls-3" d="M52.3,47.88s.02.06.03.09c0-.03-.02-.06-.03-.09Z"/>
      <path class="cls-3" d="M40.54,52.1s.02-.03.02-.04c0,.02-.02.03-.02.04Z"/>
      <path class="cls-3" d="M52.23,47.72s.03.05.04.08c-.01-.03-.03-.05-.04-.08Z"/>
      <path class="cls-3" d="M53.43,44.62s-.01.05-.03.07c.01-.02.02-.05.03-.07Z"/>
      <path class="cls-3" d="M78.2,71.01s0,.03,0,.05c0-.02,0-.03,0-.05Z"/>
      <path class="cls-3" d="M79.28,68.67s0,.02,0,.03c0-.01,0-.02,0-.03Z"/>
      <path class="cls-3" d="M79.18,68.49s.03.02.04.03c-.01-.01-.02-.02-.04-.03Z"/>
      <path class="cls-3" d="M11.52,113.53s0,.06-.02.09c.01-.03.02-.06.02-.09Z"/>
      <path class="cls-3" d="M79.26,68.58s-.01-.01-.01-.02c0,.01.01.02.02.04,0,0,0-.01,0-.02Z"/>
      <path class="cls-3" d="M60.58,63.55s.07.06.09.1c-.02-.04-.05-.08-.09-.1Z"/>
      <path class="cls-3" d="M78.93,68.48s.07-.02.1-.03c-.04,0-.07,0-.1.03Z"/>
      <path class="cls-3" d="M46.91,139.95s-.01.08-.03.11c.02-.03.03-.07.03-.11Z"/>
      <path class="cls-3" d="M52.2,48.66s.02-.05.04-.07c-.02.03-.03.06-.05.09,0,0,0-.01.01-.02Z"/>
      <path class="cls-3" d="M9.02,50.93s0-.04,0-.06c0,.02,0,.04,0,.06Z"/>
      <path class="cls-3" d="M79.07,68.46s.05,0,.07.02c-.02-.01-.05-.02-.07-.02Z"/>
      <path class="cls-3" d="M46.87,140.08s-.03.05-.06.07c.02-.02.04-.04.06-.07Z"/>
      <path class="cls-3" d="M36.47,72.87s.04.02.05.02c-.02,0-.03-.02-.05-.02Z"/>
      <path class="cls-3" d="M78.38,77.69c-.07,0-.13.02-.19.04.06-.02.12-.04.19-.04Z"/>
      <path class="cls-3" d="M36.17,72.96s.07-.06.12-.08c-.04.02-.09.04-.12.08Z"/>
      <path class="cls-3" d="M77.97,77.92s-.04.05-.05.08c.01-.03.03-.05.05-.08Z"/>
      <path class="cls-3" d="M36.58,72.93s0,0,0,0c0,0,.01.01.02.02,0,0,0-.01-.01-.02Z"/>
      <path class="cls-3" d="M36.32,72.87s.08-.01.12,0c-.04,0-.08,0-.12,0Z"/>
      <path class="cls-3" d="M36.66,73.04s0,.02.01.03c0-.01,0-.02-.01-.03Z"/>
      <path class="cls-3" d="M78.29,71.18s.03.03.04.03c-.02,0-.03-.02-.04-.03Z"/>
      <path class="cls-3" d="M9.05,51.11s.01.02.02.03c-.01-.02-.02-.04-.03-.06,0,.01,0,.02,0,.04Z"/>
      <path class="cls-3" d="M11.49,113.65s-.02.04-.04.05c.02-.02.03-.03.04-.05Z"/>
      <path class="cls-3" d="M66.91,53.28s.04.06.06.09c.01.01.02.02.03.03.04.03.09.06.14.07,1.52.34,2.91.98,4.16,1.91,2.05,1.52,5.37,1.29,7.38,2.03.13.05.26.11.38.19l5,3.27c.14.09.32.07.44-.05h.01c.12-.16.12-.37-.01-.51-2.95-3.16-4.35-5.04-5.72-8.21-.19-.44-.57-.77-1.03-.88-3.97-1.01-7,.14-10.68,1.59-.05.02-.09.05-.13.09-.01.01-.02.02-.03.04-.02.03-.04.06-.05.1,0,.02-.01.04-.01.06,0,.02,0,.05,0,.07,0,.02,0,.05.01.07,0,.02.01.04.02.05Z"/>
      <path class="cls-3" d="M66.89,53.22s-.01-.05-.01-.07c0,.02,0,.05.01.07Z"/>
      <path class="cls-3" d="M66.98,53.37s-.05-.06-.06-.09c.02.03.04.06.06.09Z"/>
      <path class="cls-3" d="M67.15,53.47c-.05-.01-.1-.04-.14-.07.04.03.09.06.14.07Z"/>
      <path class="cls-3" d="M66.88,53.05s0,.02,0,.03c0-.02,0-.04.01-.06,0,0,0,.01-.01.02Z"/>
      <path class="cls-3" d="M66.94,52.93s.02-.03.03-.04c-.01.01-.02.02-.03.04Z"/>
    </g>
    <path class="cls-2" d="M168.32,81.65c0,6.74-5.35,10.63-15.59,10.63h-20.16v-38.98h19.04c9.74,0,14.76,4.06,14.76,10.13,0,3.9-2,6.9-5.18,8.57,4.34,1.39,7.13,4.73,7.13,9.63ZM141.54,60.1v9.19h8.96c4.4,0,6.79-1.56,6.79-4.62s-2.39-4.57-6.79-4.57h-8.96ZM159.25,80.7c0-3.28-2.51-4.84-7.18-4.84h-10.52v9.63h10.52c4.68,0,7.18-1.45,7.18-4.79Z"/>
    <path class="cls-2" d="M200.01,92.28l-7.52-10.86h-8.3v10.86h-9.02v-38.98h16.87c10.41,0,16.93,5.4,16.93,14.14,0,5.85-2.95,10.13-8.02,12.31l8.74,12.53h-9.69ZM191.54,60.66h-7.35v13.59h7.35c5.51,0,8.3-2.56,8.3-6.79s-2.78-6.79-8.3-6.79Z"/>
    <path class="cls-2" d="M216.1,53.31h9.02v38.98h-9.02v-38.98Z"/>
    <path class="cls-2" d="M242.44,60.66h-12.47v-7.35h33.96v7.35h-12.47v31.63h-9.02v-31.63Z"/>
    <path class="cls-2" d="M268.78,53.31h9.02v38.98h-9.02v-38.98Z"/>
    <path class="cls-2" d="M283.98,88.44l3.06-6.79c3.28,2.39,8.18,4.06,12.86,4.06,5.35,0,7.52-1.78,7.52-4.18,0-7.29-22.66-2.28-22.66-16.76,0-6.63,5.35-12.14,16.43-12.14,4.9,0,9.91,1.17,13.53,3.45l-2.78,6.85c-3.62-2.06-7.35-3.06-10.8-3.06-5.34,0-7.41,2-7.41,4.45,0,7.18,22.66,2.23,22.66,16.54,0,6.51-5.4,12.08-16.54,12.08-6.18,0-12.42-1.84-15.87-4.51Z"/>
    <path class="cls-2" d="M358.31,53.31v38.98h-9.02v-15.98h-17.71v15.98h-9.02v-38.98h9.02v15.37h17.71v-15.37h9.02Z"/>
    <path class="cls-3" d="M383.32,53.31h9.02v31.63h19.54v7.35h-28.56v-38.98Z"/>
    <path class="cls-3" d="M413.83,72.8c0-11.58,9.02-20.16,21.33-20.16s21.33,8.52,21.33,20.16-9.08,20.16-21.33,20.16-21.33-8.57-21.33-20.16ZM447.35,72.8c0-7.41-5.23-12.47-12.19-12.47s-12.19,5.07-12.19,12.47,5.23,12.47,12.19,12.47,12.19-5.07,12.19-12.47Z"/>
    <path class="cls-3" d="M460.83,72.8c0-11.58,9.02-20.16,21.33-20.16s21.33,8.52,21.33,20.16-9.08,20.16-21.33,20.16-21.33-8.57-21.33-20.16ZM494.35,72.8c0-7.41-5.23-12.47-12.19-12.47s-12.19,5.07-12.19,12.47,5.23,12.47,12.19,12.47,12.19-5.07,12.19-12.47Z"/>
    <path class="cls-3" d="M524.47,76.97l-5.23,5.46v9.86h-8.96v-38.98h8.96v18.21l17.26-18.21h10.02l-16.15,17.37,17.09,21.6h-10.52l-12.47-15.31Z"/>
    <path class="cls-3" d="M550.59,75.13v-21.83h9.02v21.49c0,7.41,3.23,10.47,8.69,10.47s8.69-3.06,8.69-10.47v-21.49h8.91v21.83c0,11.47-6.57,17.82-17.65,17.82s-17.65-6.35-17.65-17.82Z"/>
    <path class="cls-3" d="M628.6,67.45c0,8.69-6.51,14.09-16.93,14.09h-7.85v10.75h-9.02v-38.98h16.87c10.41,0,16.93,5.4,16.93,14.14ZM619.47,67.45c0-4.29-2.78-6.79-8.3-6.79h-7.35v13.53h7.35c5.51,0,8.3-2.51,8.3-6.74Z"/>
    <g>
      <path class="cls-3" d="M135.67,132.2v-11.49h2.12v11.41c0,4.76,2.24,6.93,6.13,6.93s6.16-2.18,6.16-6.93v-11.41h2.06v11.49c0,5.76-3.1,8.74-8.22,8.74s-8.25-2.98-8.25-8.74Z"/>
      <path class="cls-3" d="M164.75,131.34l-4.1,4.15v5.27h-2.12v-20.06h2.12v12.12l11.78-12.12h2.44l-8.68,9.08,9.28,10.98h-2.52l-8.2-9.43Z"/>
      <path class="cls-3" d="M203.17,135.41c0,3.41-2.52,5.36-7.54,5.36h-9.23v-20.06h8.65c4.47,0,7.05,1.89,7.05,5.16,0,2.29-1.23,3.81-3.07,4.56,2.58.57,4.13,2.26,4.13,4.99ZM188.53,122.45v7.28h6.39c3.21,0,5.07-1.23,5.07-3.64s-1.86-3.64-5.07-3.64h-6.39ZM201.05,135.23c0-2.61-1.92-3.75-5.44-3.75h-7.08v7.54h7.08c3.52,0,5.44-1.15,5.44-3.78Z"/>
      <path class="cls-3" d="M207.84,132.2v-11.49h2.12v11.41c0,4.76,2.24,6.93,6.13,6.93s6.16-2.18,6.16-6.93v-11.41h2.06v11.49c0,5.76-3.1,8.74-8.22,8.74s-8.25-2.98-8.25-8.74Z"/>
      <path class="cls-3" d="M228.78,138.33l.83-1.63c1.43,1.4,3.98,2.44,6.62,2.44,3.75,0,5.39-1.58,5.39-3.55,0-5.5-12.35-2.12-12.35-9.54,0-2.95,2.29-5.5,7.39-5.5,2.26,0,4.61.66,6.22,1.78l-.72,1.69c-1.72-1.12-3.73-1.66-5.5-1.66-3.67,0-5.3,1.63-5.3,3.64,0,5.5,12.35,2.18,12.35,9.49,0,2.95-2.35,5.47-7.48,5.47-3.01,0-5.96-1.06-7.45-2.61Z"/>
      <path class="cls-3" d="M248.32,120.71h2.12v20.06h-2.12v-20.06Z"/>
      <path class="cls-3" d="M273.74,120.71v20.06h-1.75l-12.9-16.28v16.28h-2.12v-20.06h1.75l12.92,16.28v-16.28h2.09Z"/>
      <path class="cls-3" d="M294.45,138.93v1.83h-14.19v-20.06h13.75v1.83h-11.63v7.14h10.37v1.8h-10.37v7.45h12.06Z"/>
      <path class="cls-3" d="M297.52,138.33l.83-1.63c1.43,1.4,3.98,2.44,6.62,2.44,3.75,0,5.39-1.58,5.39-3.55,0-5.5-12.35-2.12-12.35-9.54,0-2.95,2.29-5.5,7.39-5.5,2.26,0,4.61.66,6.22,1.78l-.72,1.69c-1.72-1.12-3.73-1.66-5.5-1.66-3.67,0-5.3,1.63-5.3,3.64,0,5.5,12.35,2.18,12.35,9.49,0,2.95-2.35,5.47-7.48,5.47-3.01,0-5.96-1.06-7.45-2.61Z"/>
      <path class="cls-3" d="M315.14,138.33l.83-1.63c1.43,1.4,3.98,2.44,6.62,2.44,3.75,0,5.39-1.58,5.39-3.55,0-5.5-12.35-2.12-12.35-9.54,0-2.95,2.29-5.5,7.39-5.5,2.26,0,4.61.66,6.22,1.78l-.72,1.69c-1.72-1.12-3.73-1.66-5.5-1.66-3.67,0-5.3,1.63-5.3,3.64,0,5.5,12.35,2.18,12.35,9.49,0,2.95-2.35,5.47-7.48,5.47-3.01,0-5.96-1.06-7.45-2.61Z"/>
      <path class="cls-3" d="M342.18,120.71h8.17c6.42,0,10.75,4.13,10.75,10.03s-4.33,10.03-10.75,10.03h-8.17v-20.06ZM350.24,138.93c5.33,0,8.77-3.38,8.77-8.2s-3.44-8.2-8.77-8.2h-5.93v16.39h5.93Z"/>
      <path class="cls-3" d="M365.85,120.71h2.12v20.06h-2.12v-20.06Z"/>
      <path class="cls-3" d="M388.2,140.77l-4.58-6.45c-.52.06-1.03.09-1.61.09h-5.39v6.36h-2.12v-20.06h7.51c5.1,0,8.2,2.58,8.2,6.88,0,3.15-1.66,5.36-4.58,6.3l4.9,6.88h-2.32ZM388.08,127.58c0-3.21-2.12-5.04-6.13-5.04h-5.33v10.06h5.33c4.01,0,6.13-1.86,6.13-5.01Z"/>
      <path class="cls-3" d="M409.4,138.93v1.83h-14.18v-20.06h13.75v1.83h-11.63v7.14h10.37v1.8h-10.37v7.45h12.06Z"/>
      <path class="cls-3" d="M412.49,130.74c0-5.87,4.47-10.2,10.52-10.2,2.92,0,5.56.97,7.34,2.92l-1.35,1.35c-1.63-1.66-3.64-2.38-5.93-2.38-4.84,0-8.48,3.55-8.48,8.31s3.64,8.31,8.48,8.31c2.29,0,4.3-.72,5.93-2.41l1.35,1.35c-1.78,1.95-4.41,2.95-7.36,2.95-6.02,0-10.49-4.33-10.49-10.2Z"/>
      <path class="cls-3" d="M438.51,122.54h-7.05v-1.83h16.22v1.83h-7.05v18.23h-2.12v-18.23Z"/>
      <path class="cls-3" d="M448.99,130.74c0-5.85,4.47-10.2,10.54-10.2s10.52,4.33,10.52,10.2-4.5,10.2-10.52,10.2-10.54-4.36-10.54-10.2ZM467.93,130.74c0-4.79-3.58-8.31-8.4-8.31s-8.45,3.52-8.45,8.31,3.61,8.31,8.45,8.31,8.4-3.52,8.4-8.31Z"/>
      <path class="cls-3" d="M488.5,140.77l-4.59-6.45c-.52.06-1.03.09-1.6.09h-5.39v6.36h-2.12v-20.06h7.51c5.1,0,8.2,2.58,8.2,6.88,0,3.15-1.66,5.36-4.58,6.3l4.9,6.88h-2.32ZM488.39,127.58c0-3.21-2.12-5.04-6.13-5.04h-5.33v10.06h5.33c4.01,0,6.13-1.86,6.13-5.01Z"/>
      <path class="cls-3" d="M502.11,133.83v6.93h-2.09v-6.93l-8.02-13.12h2.26l6.88,11.26,6.88-11.26h2.12l-8.02,13.12Z"/>
      <path class="cls-3" d="M535.29,141.08l-2.78-2.87c-1.69,1.81-3.98,2.72-6.71,2.72-3.93,0-6.73-2.06-6.73-5.1,0-2.38,1.38-4.13,5.04-6.25-1.95-2.01-2.52-3.21-2.52-4.76,0-2.55,1.98-4.27,5.07-4.27,2.84,0,4.67,1.49,4.67,3.98,0,2.01-1.2,3.41-4.47,5.3l5.5,5.67c.6-1.06,1.06-2.35,1.35-3.87l1.66.52c-.37,1.8-.97,3.35-1.78,4.61l2.87,2.95-1.18,1.35ZM531.31,136.98l-6.05-6.22c-3.21,1.83-4.18,3.09-4.18,4.87,0,2.18,1.95,3.61,4.84,3.61,2.18,0,4.01-.75,5.39-2.26ZM523.48,124.8c0,1.17.43,2.01,2.26,3.87,2.89-1.66,3.84-2.67,3.84-4.1s-1.06-2.49-2.92-2.49c-2.01,0-3.18,1.12-3.18,2.72Z"/>
      <path class="cls-3" d="M564.37,135.41c0,3.41-2.52,5.36-7.54,5.36h-9.23v-20.06h8.66c4.47,0,7.05,1.89,7.05,5.16,0,2.29-1.23,3.81-3.07,4.56,2.58.57,4.13,2.26,4.13,4.99ZM549.73,122.45v7.28h6.39c3.21,0,5.07-1.23,5.07-3.64s-1.86-3.64-5.07-3.64h-6.39ZM562.25,135.23c0-2.61-1.92-3.75-5.44-3.75h-7.08v7.54h7.08c3.52,0,5.44-1.15,5.44-3.78Z"/>
      <path class="cls-3" d="M569.21,120.71h2.12v18.23h11.23v1.83h-13.35v-20.06Z"/>
      <path class="cls-3" d="M583.91,130.74c0-5.85,4.47-10.2,10.54-10.2s10.52,4.33,10.52,10.2-4.5,10.2-10.52,10.2-10.54-4.36-10.54-10.2ZM602.85,130.74c0-4.79-3.58-8.31-8.4-8.31s-8.45,3.52-8.45,8.31,3.61,8.31,8.45,8.31,8.4-3.52,8.4-8.31Z"/>
      <path class="cls-3" d="M623.85,130.74h2.03v7.65c-1.89,1.69-4.58,2.55-7.36,2.55-6.1,0-10.57-4.33-10.57-10.2s4.47-10.2,10.6-10.2c3.04,0,5.67.97,7.45,2.89l-1.32,1.35c-1.69-1.66-3.7-2.35-6.05-2.35-4.96,0-8.6,3.52-8.6,8.31s3.64,8.31,8.57,8.31c1.92,0,3.7-.43,5.24-1.55v-6.76Z"/>
    </g>
    <rect class="cls-2" x="132.58" y="103.93" width="496.03" height="5"/>
  </g>
</svg>