<?xml version="1.0" encoding="UTF-8"?>
<svg id="Layer_2" data-name="Layer 2" xmlns="http://www.w3.org/2000/svg" viewBox="0 0 658.06 180.84">
  <defs>
    <style>
      .cls-1 {
        fill: none;
      }

      .cls-2 {
        fill: #74767f;
      }

      .cls-3 {
        fill: #1e8e6c;
      }

      .cls-4 {
        fill: #30313a;
      }
    </style>
  </defs>
  <g id="Layer_1-2" data-name="Layer 1">
    <path class="cls-1" d="M81.81,60.31s0,.06,0,.09c0-.03,0-.06,0-.09Z"/>
    <path class="cls-1" d="M81.8,60.49s-.02.06-.02.09c0-.03.02-.06.02-.09Z"/>
    <path class="cls-1" d="M81.74,60.67s-.03.06-.04.09c.01-.03.03-.06.04-.09Z"/>
    <path class="cls-1" d="M65.75,85.04s.02,0,.04-.01c-.01,0-.02,0-.04.01Z"/>
    <path class="cls-1" d="M81.65,59.8s.03.05.04.08c-.01-.03-.03-.05-.04-.08Z"/>
    <path class="cls-1" d="M81.79,60.13s0,.06.01.09c0-.03,0-.06-.01-.09Z"/>
    <path class="cls-1" d="M81.54,59.66s.04.05.06.07c-.02-.02-.04-.05-.06-.07Z"/>
    <path class="cls-1" d="M81.74,59.96s.02.06.03.08c0-.03-.02-.06-.03-.08Z"/>
    <path class="cls-1" d="M81.4,59.55s-.01,0-.02-.01c.03.02.06.04.08.06-.02-.02-.04-.04-.06-.05Z"/>
    <path class="cls-1" d="M76.35,152.22s-.01.01-.02.02c0,0,.01-.01.02-.02Z"/>
    <path class="cls-1" d="M65.92,85.03s-.01,0-.02,0c0,0,.02,0,.03,0,0,0,0,0,0,0Z"/>
    <path class="cls-1" d="M65.98,85.06s.04.02.05.03c-.02-.01-.03-.02-.05-.03Z"/>
    <path class="cls-1" d="M66.13,85.24s.02.1,0,.14c.01-.05,0-.1,0-.14Z"/>
    <path class="cls-1" d="M66.05,85.11s.05.06.07.1c-.02-.04-.04-.07-.07-.1Z"/>
    <path class="cls-1" d="M128.7,95.06s-.01.04-.02.07c0-.04.02-.07.04-.1,0,.01-.02.02-.02.04Z"/>
    <path class="cls-1" d="M128.68,95.37c-.01-.06-.01-.12,0-.18,0,.06,0,.12,0,.18Z"/>
    <path class="cls-1" d="M128.93,94.82s.06-.03.09-.04c-.03.01-.06.02-.09.04Z"/>
    <path class="cls-1" d="M110.05,94.77c-.04.05-.08.11-.09.17.02-.07.05-.12.09-.17Z"/>
    <path class="cls-1" d="M107.38,90.16s-.02.06-.03.09c0-.03.01-.06.03-.09Z"/>
    <path class="cls-1" d="M107.35,90.55c.02.06.05.12.09.17-.04-.05-.07-.11-.09-.17Z"/>
    <path class="cls-1" d="M125.22,111.86c.06,0,.12.02.17.05-.05-.04-.11-.06-.17-.05Z"/>
    <path class="cls-1" d="M125.45,111.95s-.02,0-.02-.02c.03.02.03.06.05.09-.01-.03,0-.06-.03-.08Z"/>
    <path class="cls-1" d="M125.51,112.13s0,.02,0,.03c0-.01,0-.02,0-.03Z"/>
    <path class="cls-1" d="M82.86,56.86s-.03.04-.05.06c.02-.02.04-.03.05-.06Z"/>
    <path class="cls-1" d="M82.78,56.95s-.07.04-.11.05c.04,0,.07-.03.11-.05Z"/>
    <path class="cls-1" d="M129.13,94.76s.04,0,.06,0c-.02,0-.04,0-.06,0Z"/>
    <path class="cls-1" d="M82.9,56.75s0,0,0,0c0,.01,0,.03-.01.04,0-.01.01-.02.01-.04Z"/>
    <path class="cls-1" d="M82.67,57s-.08.01-.12,0c.04,0,.08,0,.12,0Z"/>
    <path class="cls-1" d="M76.79,57.31s-.04.06-.05.1c.01-.04.03-.07.05-.1Z"/>
    <path class="cls-1" d="M69.9,64.35s.03-.02.04-.03c-.01,0-.03.02-.04.03Z"/>
    <path class="cls-1" d="M128.78,94.94s.04-.05.06-.07c-.02.02-.04.04-.06.07Z"/>
    <path class="cls-1" d="M76.73,57.48s0-.03,0-.05c0,.02,0,.03,0,.05Z"/>
    <path class="cls-1" d="M76.74,57.55s0-.01,0-.02c0,0,0,0,0,0,0,0,0,0,0,.01Z"/>
    <path class="cls-1" d="M76.82,57.66s-.02-.01-.02-.02c0,0,.01.02.02.02Z"/>
    <path class="cls-1" d="M76.81,57.29s.07-.05.11-.07c-.04.01-.08.04-.11.07Z"/>
    <path class="cls-1" d="M74.14,140.79s.03-.03.04-.05c-.01.01-.03.02-.04.04,0,0,0,0,0,0Z"/>
    <path class="cls-1" d="M43.24,115.71s.07.05.08.1c0-.05-.04-.08-.08-.1Z"/>
    <path class="cls-1" d="M37.01,85.23s.03.09.02.14c.02-.05,0-.1-.02-.14Z"/>
    <path class="cls-1" d="M70.03,64.2s0,.01,0,.02c0,0,0,0,0,0,0,0,0,0,0-.01Z"/>
    <path class="cls-1" d="M74.23,140.7s.1-.02.14,0c-.05-.02-.1-.02-.14,0Z"/>
    <path class="cls-1" d="M43.14,115.7s.03,0,.05,0c-.01,0-.02-.01-.04,0,0,0,0,0-.01,0Z"/>
    <path class="cls-1" d="M109.96,95.15s0-.01,0-.02c0,0,0,0,0,0,0,0,0,0,0,.01Z"/>
    <path class="cls-1" d="M110.09,95.36s-.03-.03-.04-.04c.01.01.02.03.04.04Z"/>
    <path class="cls-1" d="M109.95,95.05s0-.06,0-.09c0,.03,0,.06,0,.09Z"/>
    <path class="cls-1" d="M110.09,94.73c.05-.05.12-.09.19-.1-.08.02-.14.06-.19.1Z"/>
    <path class="cls-1" d="M69.88,64.35s-.1.02-.14,0c.05.02.1.01.14,0Z"/>
    <path class="cls-1" d="M70,64.26s-.01.02-.02.03c0,0,.02-.02.02-.03Z"/>
    <path class="cls-1" d="M38.59,63.37s-.04-.04-.05-.07c.01.03.03.05.05.07Z"/>
    <path class="cls-1" d="M40.75,125.93s-.01,0-.02,0c0,0,.01,0,.02,0Z"/>
    <path class="cls-1" d="M38.89,63.52s-.04,0-.05,0c.02,0,.04,0,.05,0Z"/>
    <path class="cls-1" d="M29.84,92.89s-.06.07-.11.08c.04-.02.08-.04.11-.08Z"/>
    <path class="cls-1" d="M29.54,92.95s-.02-.01-.02-.02c0,0,.01.01.02.02Z"/>
    <path class="cls-1" d="M29.67,92.99s.02,0,.03,0c-.03,0-.05,0-.08,0,.02,0,.03.02.05.02Z"/>
    <path class="cls-1" d="M40.96,125.79s0,.02-.01.02c0,0,.01-.01.01-.02Z"/>
    <path class="cls-1" d="M40.9,125.87s0,0,0,0c0,0-.01,0-.02.01,0,0,0,0,.01,0Z"/>
    <path class="cls-1" d="M36.78,85.18s.07-.03.11-.02c-.04,0-.08,0-.11.02Z"/>
    <path class="cls-1" d="M45.67,62.42s0,.02,0,.03c0-.01,0-.02,0-.03Z"/>
    <path class="cls-1" d="M45.64,62.29s.02.04.03.06c0,0,0-.02,0-.03,0-.02-.02-.02-.03-.04Z"/>
    <path class="cls-1" d="M45.51,62.22s.08.01.11.04c-.03-.02-.07-.04-.11-.04Z"/>
    <path class="cls-1" d="M36.91,85.15s.04.02.06.04c-.01-.01-.02-.03-.04-.04,0,0-.01,0-.02,0Z"/>
    <path class="cls-1" d="M38.51,63.23s-.02-.09-.02-.14c0,.05,0,.1.02.14Z"/>
    <path class="cls-1" d="M38.49,63.04c0-.07.03-.13.06-.19-.04.06-.06.12-.06.19Z"/>
    <path class="cls-1" d="M38.67,63.45s.02,0,.03.01c-.02-.01-.04-.02-.06-.04,0,0,.01.02.02.02Z"/>
    <path class="cls-1" d="M64.17,15.16s.06,0,.1.01c-.03,0-.06-.02-.1-.01Z"/>
    <path class="cls-1" d="M64.33,15.19c.05.02.1.05.15.09-.04-.04-.09-.07-.15-.09Z"/>
    <path class="cls-1" d="M108.77,17.26s.02,0,.02,0c0,0-.02,0-.02,0Z"/>
    <path class="cls-1" d="M43.73,24.58s.04-.03.07-.04c-.02.01-.05.02-.07.04Z"/>
    <path class="cls-1" d="M43.99,24.5s.09.02.14.04c-.04-.02-.09-.04-.14-.04Z"/>
    <path class="cls-1" d="M43.85,24.51s.07-.01.11-.01c-.04,0-.07,0-.11.01Z"/>
    <path class="cls-1" d="M64.02,15.2s.05-.01.08-.02c-.03,0-.05,0-.08.02Z"/>
    <path class="cls-1" d="M63.89,15.28s0,0,0,0c.01-.02.03-.02.05-.04-.02.01-.03.02-.05.03Z"/>
    <path class="cls-1" d="M51.61,47.66s-.07-.03-.1-.05c.03.02.06.04.1.05Z"/>
    <path class="cls-1" d="M105.1,41.08s-.09.04-.15.04c.05,0,.11,0,.15-.04Z"/>
    <path class="cls-1" d="M52,47.67s.07-.03.1-.04c-.05.03-.1.04-.16.05.02,0,.04,0,.06,0Z"/>
    <path class="cls-1" d="M105.18,40.94s0,0,0,0c0,.06-.04.1-.08.14.04-.03.07-.08.08-.13Z"/>
    <path class="cls-1" d="M51.83,47.7s-.07,0-.11,0c.04,0,.07,0,.11,0Z"/>
    <path class="cls-1" d="M109.14,17.47s.01.08,0,.12c0-.04,0-.08,0-.12Z"/>
    <path class="cls-1" d="M108.9,17.25s0,0,0,0c.02,0,.03,0,.05.01-.01,0-.03-.01-.04-.01Z"/>
    <path class="cls-1" d="M109,17.29s.04.03.05.04c-.02-.02-.03-.03-.05-.04Z"/>
    <path class="cls-1" d="M109.09,17.37s.03.05.04.08c-.01-.03-.02-.06-.04-.08Z"/>
    <path class="cls-1" d="M107.34,90.48s-.01-.08-.01-.12c0,.01,0,.02,0,.03,0,.03.01.06.02.09Z"/>
    <path class="cls-1" d="M43.61,24.82s0-.02,0-.03c0,.01,0,.02,0,.03Z"/>
    <path class="cls-1" d="M43.65,24.68s0,0,0,0c0-.02.02-.03.03-.05-.01.01-.02.02-.03.04Z"/>
    <path class="cls-1" d="M107.66,89.89s-.04.02-.06.03c.02-.01.04-.02.06-.03Z"/>
    <path class="cls-1" d="M89.79,75.64s.09,0,.14.01c-.04-.01-.09-.02-.14-.01Z"/>
    <path class="cls-1" d="M86.2,64.52s.04.02.06.04c-.02-.02-.04-.03-.06-.04Z"/>
    <path class="cls-1" d="M108.5,80.62s.02,0,.03,0c-.01,0-.02,0-.03,0Z"/>
    <path class="cls-1" d="M89.65,75.68s-.03.03-.05.04c.02-.01.03-.03.05-.04,0,0,0,0,0,0Z"/>
    <path class="cls-1" d="M108.62,80.64s-.01,0-.02,0c.01,0,.02.01.04.02,0,0-.01-.01-.02-.01Z"/>
    <path class="cls-1" d="M86.37,64.77c0,.06,0,.13-.02.19.02-.06.02-.13.02-.19Z"/>
    <path class="cls-1" d="M86.27,64.57s.07.1.08.16c-.02-.06-.04-.11-.08-.16Z"/>
    <path class="cls-1" d="M89.49,75.89s.04-.09.07-.12c-.03.04-.05.08-.07.12Z"/>
    <path class="cls-1" d="M89.12,84s.03-.08.03-.13c0,.05,0,.09-.03.13Z"/>
    <path class="cls-1" d="M89.98,75.68s.05.02.06.03c-.02-.02-.04-.02-.06-.03Z"/>
    <path class="cls-1" d="M108.68,80.69s.02.02.03.04c0-.01-.02-.03-.03-.04Z"/>
    <path class="cls-1" d="M51.43,47.54s-.05-.06-.08-.09c.02.03.05.06.08.09Z"/>
    <path class="cls-1" d="M108.73,80.76s.02.05.02.07c0-.03,0-.05-.02-.07Z"/>
    <path class="cls-1" d="M108.75,80.86s0,.07-.03.1c.02-.03.02-.07.03-.1Z"/>
    <path class="cls-1" d="M107.67,83.22s.01.03.02.05c0-.02-.02-.03-.02-.05Z"/>
    <path class="cls-1" d="M79.31,111.54s0,.03-.01.04c0-.01.01-.03.01-.04Z"/>
    <path class="cls-1" d="M79.06,111.79c-.05.01-.1,0-.15,0,.05.01.1.01.15,0Z"/>
    <path class="cls-1" d="M78.87,111.77c-.05-.02-.1-.05-.14-.09.04.05.09.07.14.09Z"/>
    <path class="cls-1" d="M79.14,111.76s-.04.02-.06.03c.02,0,.04-.02.06-.03Z"/>
    <path class="cls-1" d="M85.9,64.47s.03,0,.05,0c-.02,0-.03,0-.05,0Z"/>
    <path class="cls-1" d="M79.2,111.72s0,0,0-.01c0,0,0,.01-.01.02,0,0,0,0,0,0Z"/>
    <path class="cls-1" d="M86.13,64.47s0,0-.01,0c0,0,.01,0,.01,0,0,0,0,0,0,0Z"/>
    <path class="cls-1" d="M96.43,65.06s.08-.07.13-.09c-.05.02-.09.05-.13.09Z"/>
    <path class="cls-1" d="M96.47,65.56s-.02-.02-.03-.03c.01.01.02.02.03.03Z"/>
    <path class="cls-1" d="M96.36,65.42s.01.01.02.02c0-.02-.02-.04-.02-.05,0,.01,0,.02,0,.03Z"/>
    <path class="cls-1" d="M96.34,65.32s0-.05,0-.07c0,.02,0,.05,0,.07Z"/>
    <path class="cls-1" d="M96.36,65.19s.03-.07.05-.1c-.02.03-.04.06-.05.1Z"/>
    <path class="cls-1" d="M79.51,95.13s.02,0,.03.02c0,0-.02-.01-.03-.02Z"/>
    <path class="cls-1" d="M102.33,86.78s-.03,0-.05,0c.02,0,.03,0,.05,0Z"/>
    <path class="cls-1" d="M102.44,86.72s-.04.04-.06.05c0,0,.01,0,.02,0,.02-.01.03-.03.04-.04Z"/>
    <path class="cls-1" d="M79.28,95.24s.03-.07.06-.09c-.03.02-.05.05-.06.09Z"/>
    <path class="cls-1" d="M79.37,95.13s.04-.01.07-.01c-.01,0-.02,0-.03,0-.01,0-.02.01-.04.02Z"/>
    <path class="cls-1" d="M88.97,84.1s-.02,0-.03,0c0,0,.02,0,.03,0Z"/>
    <path class="cls-1" d="M89.11,84.02s-.04.03-.06.04c.02,0,.04,0,.05-.02,0,0,0-.02.01-.02Z"/>
    <path class="cls-1" d="M107.75,83.34s-.03-.02-.03-.03c0,.01.02.02.03.03Z"/>
    <path class="cls-1" d="M107.88,83.41s-.06-.02-.09-.03c0,0,0,0,0,0,.02.01.05.02.08.03Z"/>
    <path class="cls-1" d="M107.67,83.17s0-.04,0-.06c0,.02,0,.04,0,.06Z"/>
    <path class="cls-1" d="M107.43,90.08s.04-.06.07-.08c-.03.02-.05.05-.07.08Z"/>
    <path class="cls-4" d="M108.8,17.26s.06,0,.09,0c-.03,0-.06,0-.09,0Z"/>
    <path class="cls-4" d="M109.13,17.45s0,.01.01.02c0,0,0-.01-.01-.02Z"/>
    <path class="cls-4" d="M109.09,17.36s-.02-.02-.03-.03c.01.01.03.02.03.03,0,0,0,0,0,0Z"/>
    <path class="cls-4" d="M108.94,17.27s.04.01.06.02c-.02-.01-.04-.02-.06-.02Z"/>
    <path class="cls-4" d="M64.33,15.18s-.04,0-.06,0c.02,0,.04,0,.06.01,0,0,0,0,0,0Z"/>
    <path class="cls-4" d="M108.66,17.31s.07-.04.11-.05c-.04.01-.07.03-.11.05Z"/>
    <path class="cls-4" d="M51.52,47.61s-.06-.04-.09-.07c.03.03.06.05.09.07Z"/>
    <path class="cls-4" d="M51.31,47.41s.03.03.04.05c-.03-.04-.07-.09-.08-.14.01.03.03.07.04.1Z"/>
    <path class="cls-4" d="M43.63,24.97s-.02-.09-.02-.14c0,.05,0,.09.02.14Z"/>
    <path class="cls-4" d="M51.94,47.68s-.08.01-.11.01c.04,0,.08,0,.11-.01Z"/>
    <polygon class="cls-4" points="104.94 41.11 104.95 41.11 104.94 41.11 104.94 41.11"/>
    <path class="cls-4" d="M51.72,47.69s-.07-.02-.11-.03c.03.01.07.02.11.03Z"/>
    <path class="cls-4" d="M105.1,41.07s0,0,0,0c0,0,0,0,0,0Z"/>
    <path class="cls-4" d="M63.94,15.25s.05-.04.08-.05c-.03.01-.05.03-.08.05Z"/>
    <path class="cls-4" d="M43.69,24.64s.03-.04.05-.06c-.02.02-.03.04-.05.06Z"/>
    <path class="cls-4" d="M43.85,24.52s-.03.02-.04.03c.02,0,.03-.02.05-.03,0,0,0,0,0,0Z"/>
    <path class="cls-4" d="M43.62,24.79s.01-.07.03-.1c-.02.03-.02.07-.03.1Z"/>
    <path class="cls-4" d="M63.79,15.43c.02-.05.05-.1.09-.15-.04.04-.07.09-.09.15Z"/>
    <path class="cls-4" d="M43.96,24.5s.02,0,.03,0c-.01,0-.02,0-.03,0Z"/>
    <path class="cls-4" d="M64.09,15.18s.05-.02.08-.02c-.03,0-.05,0-.08.02Z"/>
    <path class="cls-4" d="M79.53,95.15s.05.05.06.09c0-.04-.03-.07-.06-.09Z"/>
    <path class="cls-4" d="M85.95,64.46c.06,0,.12,0,.18.01-.06-.02-.12-.02-.18-.01Z"/>
    <path class="cls-4" d="M78.91,111.79s-.03,0-.04-.01c.01,0,.03,0,.04.01Z"/>
    <path class="cls-4" d="M45.67,62.35s0,.05,0,.07c0-.02.01-.03.01-.05,0-.01-.01-.02-.01-.03Z"/>
    <polygon class="cls-4" points="86.27 64.56 86.26 64.56 86.27 64.57 86.27 64.56"/>
    <path class="cls-4" d="M36.89,85.15s.01,0,.02,0c0,0-.01,0-.02,0Z"/>
    <path class="cls-4" d="M86.35,64.73s0,.03.01.05c0-.02,0-.03-.01-.05Z"/>
    <path class="cls-4" d="M86.14,64.48s.04.03.06.04c-.02-.01-.04-.03-.06-.04Z"/>
    <path class="cls-4" d="M45.62,62.26s.01.02.02.03c0,0-.01-.02-.02-.03Z"/>
    <path class="cls-4" d="M79.31,111.37c.02.06.01.11,0,.17.01-.05.02-.11,0-.17Z"/>
    <path class="cls-4" d="M79.29,111.58s-.04.09-.08.12c.04-.03.06-.08.08-.12Z"/>
    <path class="cls-4" d="M89.55,75.77s.04-.03.05-.04c-.02.01-.04.03-.05.04Z"/>
    <path class="cls-4" d="M79.2,111.72s-.04.02-.06.03c.02-.01.04-.02.06-.03Z"/>
    <path class="cls-4" d="M85.73,64.56s.11-.07.17-.09c-.06.02-.12.04-.17.09Z"/>
    <path class="cls-4" d="M89.66,75.68s.09-.04.13-.04c-.05,0-.09.02-.13.04Z"/>
    <path class="cls-4" d="M79.07,111.79s0,0,0,0c0,0-.01,0-.02,0,0,0,.01,0,.02,0Z"/>
    <path class="cls-4" d="M45.66,62.46s-.04.06-.08.08c.04-.02.06-.05.08-.08Z"/>
    <path class="cls-4" d="M88.84,84.04s.07.05.11.05c-.04,0-.08-.02-.11-.05Z"/>
    <path class="cls-4" d="M76.79,57.31s.01-.02.02-.02c0,0-.01.02-.02.02Z"/>
    <path class="cls-4" d="M107.66,83.11s.01-.06.02-.09c-.01.02-.02.05-.03.08,0,0,0,0,0,.01Z"/>
    <path class="cls-4" d="M69.98,64.3s-.02.02-.03.02c.01,0,.02-.01.03-.02Z"/>
    <path class="cls-4" d="M102.28,86.78s-.05-.02-.07-.04c.01.02.03.03.04.04,0,0,.01,0,.02,0Z"/>
    <path class="cls-4" d="M70.03,64.05s.01.1,0,.15c.01-.05.02-.1,0-.15Z"/>
    <path class="cls-4" d="M69.9,64.35s-.01,0-.02,0c0,0,0,0,.01,0,0,0,0,0,0,0Z"/>
    <path class="cls-4" d="M109.95,94.96s0-.01,0-.02c0,0,0,0,0,.01,0,0,0,0,0,0Z"/>
    <path class="cls-4" d="M110.05,94.77s.02-.03.04-.04c-.01.01-.02.02-.04.04Z"/>
    <path class="cls-4" d="M107.5,89.99s.06-.05.1-.07c-.03.01-.05.02-.08.04,0,0-.01.02-.02.02Z"/>
    <path class="cls-4" d="M109.95,95.13s0-.06,0-.09c0,.03,0,.06,0,.09Z"/>
    <path class="cls-4" d="M110.28,95.47c-.07-.02-.14-.06-.19-.1.05.05.11.09.19.1Z"/>
    <path class="cls-4" d="M107.72,83.31s-.02-.03-.02-.04c0,.02.01.03.02.04Z"/>
    <path class="cls-4" d="M102.38,86.77s-.03,0-.05.01c.02,0,.03,0,.05-.01Z"/>
    <path class="cls-4" d="M43.04,115.77s.06-.07.1-.08c-.04.01-.08.03-.1.08Z"/>
    <path class="cls-4" d="M43.19,115.7s.03,0,.05.01c0,0,0,0,0-.01-.01,0-.03,0-.04,0Z"/>
    <path class="cls-4" d="M79.44,95.12s.05,0,.07.01c-.01,0-.02-.02-.04-.02-.01,0-.02,0-.03,0Z"/>
    <path class="cls-4" d="M36.97,85.19s.03.02.04.04c0,0,0,0,0-.01-.01-.02-.03-.02-.04-.03Z"/>
    <path class="cls-4" d="M79.34,95.15s.02-.01.03-.02c-.01,0-.02,0-.03.02Z"/>
    <path class="cls-4" d="M89.12,84s0,.02-.01.02c0,0,0-.01.01-.02Z"/>
    <path class="cls-4" d="M107.33,90.36s.01-.07.02-.11c0,.04-.02.07-.02.11Z"/>
    <path class="cls-4" d="M76.73,57.53s0-.03,0-.05c0,.02,0,.03,0,.05Z"/>
    <path class="cls-4" d="M74.15,140.94s-.02-.1,0-.14c-.02.05-.02.1,0,.14Z"/>
    <path class="cls-4" d="M76.73,57.43s0-.01,0-.02c0,0,0,0,0,.01,0,0,0,0,0,0Z"/>
    <path class="cls-4" d="M74.18,140.75s.03-.04.05-.04c0,0,0,0,0,0-.02,0-.02.03-.04.04Z"/>
    <path class="cls-4" d="M89.04,84.07s-.04.03-.07.03c0,0,.02,0,.03,0,.02,0,.03-.02.04-.03Z"/>
    <path class="cls-4" d="M76.93,57.72s-.08-.03-.11-.06c.03.03.07.05.11.06Z"/>
    <path class="cls-4" d="M109.96,95.15c.02.06.05.12.09.17-.04-.05-.08-.11-.09-.17Z"/>
    <path class="cls-4" d="M128.67,95.19s0-.04.01-.06c0,.02-.01.04-.01.06Z"/>
    <path class="cls-4" d="M89.92,75.65s0,0,0,0c.02,0,.04.02.06.03-.02,0-.03-.02-.05-.03Z"/>
    <path class="cls-4" d="M39.09,63.49c-.06.03-.13.04-.19.03.06,0,.13,0,.19-.03Z"/>
    <path class="cls-4" d="M81.8,60.22s0,.06,0,.09c0-.03,0-.06,0-.09Z"/>
    <path class="cls-4" d="M128.73,95.03s.04-.06.06-.09c-.02.03-.04.05-.06.09Z"/>
    <path class="cls-4" d="M40.76,125.93c.05,0,.1-.02.13-.05-.04.04-.1.05-.15.05,0,0,.01,0,.02,0Z"/>
    <path class="cls-4" d="M125.4,111.92s.02.01.03.02c0,0-.02-.01-.03-.02Z"/>
    <path class="cls-4" d="M81.77,60.58s-.01.06-.03.09c.01-.03.02-.06.03-.09Z"/>
    <path class="cls-4" d="M128.85,94.87s.05-.04.08-.05c-.03.02-.05.03-.08.05Z"/>
    <path class="cls-4" d="M107.34,90.48s0,.04.01.07c0-.02,0-.04-.01-.07Z"/>
    <path class="cls-4" d="M38.84,63.51s-.09-.02-.13-.05c.04.02.09.04.13.05Z"/>
    <path class="cls-4" d="M125.5,112.16c0,.06-.03.12-.08.17.05-.04.07-.1.08-.17Z"/>
    <path class="cls-4" d="M81.8,60.4s0,.06,0,.09c0-.03,0-.06,0-.09Z"/>
    <path class="cls-4" d="M125.51,112.1s-.03-.05-.04-.07c.01.03.03.07.03.1,0,0,0-.02,0-.03Z"/>
    <path class="cls-4" d="M82.67,56.99s0,0,0,0c0,0,0,0,0,0Z"/>
    <path class="cls-4" d="M82.78,56.95s.02-.02.03-.03c-.01,0-.02.02-.03.03,0,0,0,0,0,0Z"/>
    <path class="cls-4" d="M76.74,57.55s.03.07.05.09c-.02-.03-.04-.06-.05-.09Z"/>
    <path class="cls-4" d="M81.59,59.73s.04.05.06.07c-.02-.03-.04-.05-.06-.07Z"/>
    <path class="cls-4" d="M29.57,92.97s.04,0,.05,0c-.03,0-.06-.01-.08-.03,0,0,.01.02.02.02Z"/>
    <path class="cls-4" d="M38.65,63.43s-.04-.04-.06-.06c.02.02.04.04.06.06Z"/>
    <path class="cls-4" d="M29.73,92.98s-.02,0-.03,0c.01,0,.02,0,.03,0Z"/>
    <path class="cls-4" d="M81.46,59.6s.05.04.07.06c-.02-.02-.05-.04-.07-.06Z"/>
    <path class="cls-4" d="M82.85,56.52c.05.07.07.15.05.23.01-.08,0-.16-.05-.23Z"/>
    <path class="cls-4" d="M129.06,94.76s-.03.01-.04.02c.03-.01.07-.02.11-.02-.02,0-.05,0-.07,0Z"/>
    <path class="cls-4" d="M29.52,92.92s-.06-.07-.06-.12c0,.05.03.09.06.12Z"/>
    <path class="cls-4" d="M129.19,94.75c.06,0,.12.01.18.03-.06-.02-.12-.03-.18-.03Z"/>
    <path class="cls-4" d="M40.72,125.93c-.05,0-.11-.03-.15-.07.04.04.09.06.15.07Z"/>
    <path class="cls-4" d="M81.76,60.05s.02.06.03.09c0-.03-.02-.06-.03-.09Z"/>
    <path class="cls-4" d="M70,64.26s.02-.03.02-.04c0,.02-.02.03-.02.04Z"/>
    <path class="cls-4" d="M81.7,59.88s.03.05.04.08c-.01-.03-.03-.05-.04-.08Z"/>
    <path class="cls-4" d="M82.89,56.79s-.01.05-.03.07c.01-.02.02-.05.03-.07Z"/>
    <path class="cls-4" d="M107.67,83.17s0,.03,0,.05c0-.02,0-.03,0-.05Z"/>
    <path class="cls-4" d="M108.75,80.83s0,.02,0,.03c0-.01,0-.02,0-.03Z"/>
    <path class="cls-4" d="M108.64,80.66s.03.02.04.03c-.01-.01-.02-.02-.04-.03Z"/>
    <path class="cls-4" d="M40.98,125.69s0,.06-.02.09c.01-.03.02-.06.02-.09Z"/>
    <path class="cls-4" d="M108.72,80.74s-.01-.01-.01-.02c0,.01.01.02.02.04,0,0,0-.01,0-.02Z"/>
    <path class="cls-4" d="M90.04,75.72s.07.06.09.1c-.02-.04-.05-.08-.09-.1Z"/>
    <path class="cls-4" d="M108.4,80.64s.07-.02.1-.03c-.04,0-.07,0-.1.03Z"/>
    <path class="cls-4" d="M76.38,152.11s-.01.08-.03.11c.02-.03.03-.07.03-.11Z"/>
    <path class="cls-4" d="M81.66,60.83s.02-.05.04-.07c-.02.03-.03.06-.05.09,0,0,0-.01.01-.02Z"/>
    <path class="cls-4" d="M38.49,63.09s0-.04,0-.06c0,.02,0,.04,0,.06Z"/>
    <path class="cls-4" d="M108.53,80.62s.05,0,.07.02c-.02-.01-.05-.02-.07-.02Z"/>
    <path class="cls-4" d="M76.33,152.24s-.03.05-.06.07c.02-.02.04-.04.06-.07Z"/>
    <path class="cls-4" d="M65.93,85.03s.04.02.05.02c-.02,0-.03-.02-.05-.02Z"/>
    <path class="cls-4" d="M107.84,89.85c-.07,0-.13.02-.19.04.06-.02.12-.04.19-.04Z"/>
    <path class="cls-4" d="M65.63,85.12s.07-.06.12-.08c-.04.02-.09.04-.12.08Z"/>
    <path class="cls-4" d="M107.43,90.08s-.04.05-.05.08c.01-.03.03-.05.05-.08Z"/>
    <path class="cls-4" d="M66.04,85.09s0,0,0,0c0,0,.01.01.02.02,0,0,0-.01-.01-.02Z"/>
    <path class="cls-4" d="M65.78,85.03s.08-.01.12,0c-.04,0-.08,0-.12,0Z"/>
    <path class="cls-4" d="M66.12,85.21s0,.02.01.03c0-.01,0-.02-.01-.03Z"/>
    <path class="cls-4" d="M107.75,83.34s.03.03.04.03c-.02,0-.03-.02-.04-.03Z"/>
    <path class="cls-4" d="M38.52,63.27s.01.02.02.03c-.01-.02-.02-.04-.03-.06,0,.01,0,.02,0,.04Z"/>
    <path class="cls-4" d="M40.95,125.81s-.02.04-.04.05c.02-.02.03-.03.04-.05Z"/>
    <g>
      <path class="cls-2" d="M111.76,96.72c-3.01.9-6.7,2.58-11.07,5.06-1.06.6-1.74,1.15-2.05,1.64-.15.24-.18.54-.08.81.85,2.41,3.55,3.79,5.74,4.56.04.02.09.02.14.02.02,0,.03,0,.05,0,.02,0,.04,0,.06-.01,0,0,.01,0,.02-.01.02-.01.05-.03.07-.04.02-.01.04-.02.05-.04.02-.02.03-.04.04-.05.02-.02.03-.04.04-.07,0,0,0-.01.01-.02,0-.02,0-.04.01-.07,0-.02,0-.03,0-.05,0-.05,0-.09-.02-.14l-.51-1.5s-.02-.09-.02-.13c0,0,0-.01,0-.02,0-.04.01-.07.03-.11,0-.01.02-.03.03-.04.02-.02.03-.04.05-.06.02-.02.04-.03.07-.04.01,0,.03-.02.04-.02.03-.01.07-.01.11-.01,0,0,.01,0,.02,0,.04,0,.09.01.13.03,2.76,1.38,5.4,2.91,6.82,5.83.03.06.07.11.12.16,0,0,0,0,0,0,.04.03.08.05.12.07.02,0,.03.02.05.03.03.01.06,0,.1.02.03,0,.07.02.1.01.02,0,.04-.01.06-.01.05,0,.09-.01.14-.03,0,0,0,0,0,0,.06-.03.11-.07.15-.12,1.91-2.06,2.86-4.56,2.83-7.51,0-.1.06-.19.16-.22l.2-.07s.06-.01.09-.01c.02,0,.04,0,.06,0,.02,0,.04,0,.06.01.02,0,.04.01.06.02.02.01.03.02.05.04.02.01.03.03.04.04.01.02.02.04.03.06.01.03.03.05.03.08.14.66.34,1.09.6,1.28.04.03.09.04.13.05,0,0,0,0,.02,0,.01,0,.02,0,.03,0,.02,0,.04,0,.06,0,.02,0,.03-.01.05-.02.02,0,.03-.02.05-.03.02-.01.03-.02.04-.04,0,0,.02-.01.02-.02,0,0,0-.01,0-.02.03-.04.05-.08.05-.13.26-3.03-.16-10.7-5.29-9.17Z"/>
      <path class="cls-2" d="M118.55,84.81s-.07,0-.11,0c-.07.02-.15.07-.22.15-.31.32-.64,1.08-.92,2.1-.07.26-.14.53-.2.81s-.12.58-.18.89c-.03.15-.05.31-.08.47-.1.64-.17,1.26-.2,1.82-.02.27-.03.52-.03.76,0,0,0,0,0,0-.01,1.25.17,2.1.51,2.15.1.02.21-.04.33-.16,0,0,0,0,.01-.01.11-.12.23-.3.34-.52,0,0,0-.01,0-.02.07-.14.14-.3.21-.47.02-.04.03-.09.05-.14.05-.14.11-.3.16-.46.08-.24.15-.5.23-.78.08-.3.15-.62.22-.96.06-.3.12-.6.17-.92.4-2.53.27-4.66-.28-4.75Z"/>
      <path class="cls-2" d="M0,0v180.84h140.09V0H0ZM30.14,24.96s0-.07.03-.11c.01,0,.02-.03.04-.04.01-.02.03-.05.04-.06.02-.02.05-.03.07-.04.02-.01.03-.02.05-.03.04-.01.07-.01.11-.02h.03s.09.02.14.04l9.39,4.72c.24.12.34.41.24.66-1.15,2.67-.76,4.77,1.16,6.32,4,3.2,10.53-2.08,7.35-6.35-.64-.86-1.44-1.5-2.4-1.93-.27-.12-.41-.43-.3-.71l4.22-11.81c.02-.06.06-.11.1-.15.01-.01.03-.02.05-.03.02-.02.05-.05.08-.06.02-.01.05-.01.08-.02.02,0,.05-.01.07-.01.03-.01.07,0,.1.01.02,0,.04,0,.06,0,.06.02.11.05.15.09l8.65,8.66c.16.16.18.4.07.58-1.62,2.58-2.63,5.55.42,7.62,3.36,2.27,7.57.95,8.9-2.88.52-1.48-.06-3.07-1.73-4.78-.33-.33-.38-.83-.13-1.21l6.97-11.01s.07-.07.12-.08c.02-.01.05-.01.08-.01.02,0,.05,0,.08.01.04.02.08.05.11.09l5.97,11.01c.13.23.11.51-.05.72l-2.11,2.8c-.08.11-.12.24-.13.37-.17,2.45.88,4.21,3.13,5.27,4.3,2.02,7.41-2.07,6.24-6.08-.12-.41-.66-1.08-.9-1.61-.1-.22-.04-.47.14-.62l8.35-6.81s.07-.04.11-.06h.03s.06,0,.09,0c.02,0,.03.01.05.01.02.01.04.01.06.03.02.01.04.02.05.04.01.01.03.02.04.03.02.03.03.06.04.09,0,0,.01.01.01.02.01.04.01.08.01.12l-3.97,23.34c-.01.06-.04.1-.08.14-.05.03-.1.04-.15.04h-.01c-16.12-3.05-32.67-1.39-48.07,4.34-1.79.67-3.38,1.4-4.77,2.18-.05.02-.11.03-.16.05-.04.01-.08.01-.11.01-.04,0-.08,0-.11-.01-.04,0-.07,0-.11-.03-.03-.01-.06-.03-.09-.05-.03-.01-.06-.04-.09-.06-.03-.03-.05-.06-.07-.09-.04-.04-.07-.09-.09-.14l-7.64-22.35s-.02-.09-.02-.14c0-.01.01-.02.01-.03ZM122.2,80.36c-.32,1.13-.4,2.45-.24,3.95.46,4.41-.15,8.4-2.27,12.45-.33.63-.43,1.35-.28,2.05.01.06.24,1.15.68,3.25,1.2,5.67-1.72,11.02-6.45,14.07-1.73,1.1-2.69,1.75-2.89,1.93-.03.03-.05.04-.08.05-.02.01-.04.03-.06.03-.03.01-.05.01-.07.02h-.07s-.05-.01-.07-.01c-.02-.01-.05-.02-.07-.03-.02-.01-.04-.02-.06-.04s-.04-.03-.06-.05c-.11-.14-.19-.37-.22-.69-.15-1.31-2.96-3.09-4.08-3.67-.03,0-.07-.02-.1-.02h-.03s-.05.01-.07.02h-.02s-.01.01-.02.02c-.02,0-.03.01-.04.03-.01,0-.02.02-.03.03s-.02.02-.02.03h0s-.02.06-.02.08c0,.01-.01.02-.01.03,0,.04.01.07.02.11,1.19,2.46,3.86,6.84,5,9.97,3,8.22,2.57,16.39-1.29,24.51-.02.05-.06.09-.11.12-.01.01-.02.01-.03.02-.05.02-.1.04-.16.04-.02,0-.04-.01-.06-.02-.02,0-.04,0-.06-.01-.05-.03-.09-.07-.12-.11-.01-.01-.02-.03-.02-.04-.03-.05-.05-.1-.04-.16.15-2.86-.47-5.79-1.86-8.81-.02-.04-.06-.07-.1-.09-.02,0-.03,0-.04,0s-.03-.01-.04-.01c-.02,0-.03.01-.05.02,0,0-.03,0-.04,0-.02.01-.02.02-.04.03l-.02.02s-.06.08-.06.13c.02,12.25-3.93,23.58-13.6,31.48-.04.03-.09.05-.1.04-.03-.02-.05-.03-.07-.03-.03-.01-.06-.02-.09-.04-.02,0-.03-.02-.05-.03-.01-.01-.03-.02-.04-.03-.01-.02-.01-.03-.02-.05,0-.02-.02-.03-.03-.05v-.05s-.01-.04-.01-.06c.01-.03.01-.06.03-.1,3.72-7.64,4.55-15.57,2.48-23.79-2.5-9.96-8-16.52-15.03-24.02-7.13-7.62-12.16-14.79-13.34-24.71-.14-1.14-.29-2.06-.44-2.75-.01-.04-.03-.07-.07-.1,0,0-.01-.01-.02-.01-.02-.01-.03-.02-.04-.02h-.06s-.03,0-.04.02c-.01,0-.02.01-.03.01-.03.03-.05.06-.06.1-1.33,5.6-1.32,10.98.03,16.13.02.06,0,.11,0,.17-.01.01-.01.03-.02.04-.01.04-.04.09-.08.12,0,.01-.01.01-.01.02-.02.01-.04.02-.06.03-.02.01-.04.02-.06.03h-.02c-.05.01-.1.01-.15,0-.02,0-.03-.01-.04-.01-.06-.02-.11-.05-.14-.09-4.73-5.47-8.53-11.69-8.74-19.11-.24-8.8,5.8-19.77,12.78-25.36,1.26-1,2.24-1.88,2.96-2.66.05-.04.11-.07.17-.09.02,0,.03,0,.05-.01.05,0,.11,0,.17.02h.02s.04.03.06.04c.02.02.04.03.06.04t.01.02s.06.07.06.11c.02.01.03.03.03.04,0,.02,0,.03.01.05,0,.06,0,.13-.02.19-2.69,6.32-2.52,13.99,2.49,19.08.03.03.07.04.11.05h.05s.03-.02.04-.03c.02,0,.04,0,.05-.02l.02-.02s.01-.02.01-.03c.02-.03.04-.08.03-.12-.57-2.63-.46-5.29.34-7.99.01-.05.03-.09.06-.12.02-.02.04-.03.06-.04.01-.02.03-.04.05-.05.04-.02.08-.03.13-.04.04,0,.09,0,.13.02.02,0,.04.02.06.03.02.01.04.02.06.03.04.03.07.06.09.11,2.34,4.3,6.56,6.13,10.39,8.93.48.35.89.78,1.22,1.27l.48.71s.02.03.04.04c.01.01.02,0,.02,0,.02.01.03.01.05.01s.03,0,.05-.01c0,0,.01,0,.02-.01.02-.01.03-.02.04-.04,1.5-2.79,3.48-4.81,5.96-6.08.03-.02.07-.03.1-.03h.03s.05,0,.08.02c.01.01.02.01.03.02s.03.02.04.03c0,.01.02.02.03.04.01.01.01.02.02.03.01.03.01.05.02.08v.03s-.01.07-.03.1l-1.03,2.06s-.02.05-.03.07v.02s0,.03.01.05v.05s.02.03.02.05c.01.01.02.03.03.04.01,0,.02.02.03.03.02.02.03.03.05.04h.01s.05.03.07.03l7.7,1.31c.06,0,.11.04.11.11.01.06-.04.11-.1.11-2.59.58-5.27.75-8.04.53-.35-.02-.65.21-.71.55l-.08.47c-.06.37.18.72.55.79,2.9.55,6.18.65,9.83.3.14-.01.26.02.34.1.03.02.05.06.07.1,0,.01,0,.02.01.04v.1s-.01.03-.02.04c0,.02-.01.03-.02.05-.01.01-.02.02-.03.03-.03.03-.06.06-.09.07-3.11,1.13-6.29,1.71-9.55,1.75-.07,0-.13.01-.19.04-.03.01-.04.02-.06.03-.03.02-.06.03-.08.04-.01.01-.01.02-.02.03-.03.02-.05.05-.07.08-.02.03-.04.05-.05.08-.02.03-.02.06-.03.1-.01.03-.02.07-.02.1,0,.01-.01.02-.01.03,0,.03.01.06.02.09,0,.03,0,.05.01.07.02.06.05.12.09.17l.38.46c.37.45.93.69,1.52.64l7.24-.65s.09.02.13.04c.01.01.02.01.02.02.02.02.03.05.04.07.01.03.03.06.03.08v.03s-.03.1-.07.13c-1.76,1.53-3.91,2.56-6.45,3.09-.08.02-.14.06-.19.11-.02.01-.03.02-.04.04-.04.05-.08.1-.09.17h-.01v.02s0,.05,0,.08v.09s.01.01.01.02c.01.06.05.12.09.17.01.01.02.03.04.04.05.05.11.09.19.1l4.39.97c.35.08.71.09,1.07.02,2.94-.54,8.06-2.18,10.07-4.62,3.82-4.59.75-7.61-3.33-9.57-1.62-.78-2.74-2.54-3.15-4.25-.01-.04-.01-.09-.01-.14.01,0,.01-.03.02-.04,0-.03.01-.06.03-.09,0-.02.03-.04.04-.06.02-.02.03-.04.05-.06.02-.02.04-.03.07-.04.02-.01.04-.03.07-.03.03-.01.06-.02.09-.02.01,0,.03-.01.04,0,.05,0,.1,0,.14.02l2.63,1.07c.11.05.23.06.35.04,2.64-.35,5.65-.34,9.03.02.06.01.12,0,.17-.03h.02s.02-.02.04-.03c.02,0,.04-.02.06-.04.01-.02.03-.04.04-.05.01-.02.03-.04.04-.06,0-.03,0-.05.02-.08,0-.01.01-.02.01-.04v-.02c0-.06-.01-.12-.03-.17-.08-.17-.27-.38-.57-.62-2.66-2.19-6.97-5.69-12.91-10.5-.37-.3-.91-.86-1.62-1.67-.14-.17-.14-.41,0-.57l.75-.83c.14-.17.21-.39.17-.6-.58-3.17-7.13-7.18-9.46-8.54-.17-.09-.36-.16-.55-.19l-.95-.16c-.36-.06-.7-.21-1-.42-5.54-4.04-14.23-5.63-19.58-.57-.15.14-.37.14-.52,0-2.2-1.96-4.68-3.45-7.44-4.47-5.63-2.08-12.07-.19-12.65,6.62-.25,2.75.83,7.62,3.82,8.7.05.01.1.01.14,0,.01-.01.01,0,.02,0t.01-.01s.02-.02.04-.02c.01-.01.02-.02.03-.03s.02-.02.02-.03c0-.02.02-.03.03-.04h0v-.03s.02-.09,0-.14c-1.47-3.91-3.02-11.42,3.24-11.94,4.01-.33,7.2,1.14,9.58,4.4.05.07.07.15.05.23,0,.02-.01.03-.01.04-.01.03-.01.05-.03.07-.01.03-.03.04-.05.06-.01.01-.02.02-.03.03-.03.02-.07.04-.11.05-.04,0-.08,0-.12,0-1.81-.31-3.68-.24-5.63.23-.04.01-.08.03-.11.06-.01.01-.01.02-.02.03-.02.02-.04.06-.05.09,0,.01-.01.01-.01.02v.1h0v.02s.04.07.07.1c0,0,.01.01.02.02.03.03.07.05.11.06,1.57.32,3.05.93,4.45,1.81.03.02.06.04.08.07.03.02.05.03.08.06.02.02.04.04.05.07.02.02.04.04.06.07.02.02.03.05.05.08.01.02.03.05.04.08.01.02.02.05.02.08.01.03.02.06.03.09.01.02.01.05.01.08s.01.06.01.09,0,.06-.01.09v.09s-.02.06-.03.09c-.01.03-.01.06-.02.09-.02.03-.03.06-.05.09-.01.03-.03.06-.05.09-1.15,1.74-2.47,3.38-3.97,4.92-5.01,5.16-12.15,11.35-15.96,18.74-2.39,4.63-3.45,9.59-3.19,14.88,0,.03.01.06.04.06.03.01.06-.01.07-.04.31-.71.6-1.56.86-2.55,1.17-4.39,3.21-8.31,6.13-11.73.03-.04.07-.06.12-.08,0-.01.02-.01.03-.01.04-.01.08-.01.12-.01.01.01.02,0,.03.01.02,0,.04.01.05.02.02,0,.04.02.05.03s.02.01.02.02c.03.03.05.06.07.1,0,.01,0,.02,0,.03.01.05.02.1.01.15-1.65,6.42-1.35,12.62.89,18.59,2.41,6.37,7.41,11.9,12.74,16.21,5.6,4.51,10.92,8.38,15.77,13.81,10.34,11.55,13.3,27.19,5.15,40.84-.14.23-.27.37-.38.42-.04.02-.09.03-.13.03-.02,0-.04,0-.06-.01-.02,0-.05,0-.07-.01-.02-.01-.04-.02-.06-.03-.02-.01-.04-.02-.05-.04-.02-.01-.03-.04-.05-.06-.01-.01-.02-.02-.03-.04-.02-.04-.03-.09-.03-.13-.1-5.95-2.34-11.73-5.18-16.72-4.45-7.83-12.06-13.87-20.28-17.55-.04-.02-.1-.02-.14,0,0,.01-.01,0-.01.01-.01,0-.01.01-.02.02-.01,0-.01.02-.02.02-.01,0-.03.02-.04.04h0s-.02.1.01.15c1.81,3.48,2.55,7.21,2.23,11.17,0,.04-.02.08-.03.11-.01.01-.01.02-.02.02-.01.03-.03.05-.05.07-.02,0-.03.02-.05.03-.01.01-.03.02-.05.03h-.07s-.03,0-.04,0c-.03,0-.06,0-.09-.03h-.02s-.07-.04-.09-.08c-3.49-4.26-7.24-6.74-12.55-9.53-2.47-1.3-4.51-2.49-6.1-3.57-8.51-5.78-12.25-13.37-13.91-23.36,0-.05-.03-.08-.07-.1-.01,0-.01-.01-.01-.01h-.04s-.03-.01-.04-.01h-.01s-.08.04-.1.09c-1.5,3.37-2.19,6.67-2.06,9.92,0,.03-.01.06-.02.09,0,.01-.01.02-.01.03-.01.02-.02.03-.04.05,0,0-.01,0-.02,0-.04.04-.09.06-.14.05h-.03s-.1-.03-.14-.07c-1.02-1.14-2.12-2.84-3.3-5.09-5.58-10.62-6.47-22.28-1.54-33.12.29-.62,1-1.51,1.29-2.27.02-.05,0-.1-.02-.14h0s-.03-.03-.04-.04c-.02-.02-.02-.03-.04-.04h-.04s-.08,0-.11.02c-3.02,2.14-5.33,4.71-6.94,7.72-.02.04-.06.06-.11.08-.01,0-.02.01-.03.01-.02.01-.05,0-.08-.01-.03-.01-.05-.01-.08-.03t-.02-.02s-.05-.08-.06-.12c.12-11.52,4.45-20.93,13.01-28.25,1.05-.89,2.09-1.56,3.11-2.02.04-.02.07-.04.08-.08.01-.01.01-.02.01-.03.01-.02.01-.03.01-.05,0,0-.01,0-.01-.02s.01-.02,0-.03c-.01-.02-.02-.03-.03-.04s-.01-.02-.02-.02c-.03-.03-.07-.04-.11-.04-2.43.02-4.57.44-6.42,1.26-.07.03-.13.04-.2.03h-.05s-.09-.03-.14-.05c-.01-.01-.03-.02-.05-.04-.02-.02-.04-.04-.06-.06-.02-.02-.04-.04-.05-.07-.01-.02-.02-.04-.03-.06,0-.05-.02-.1-.02-.14v-.06c.01-.07.02-.13.06-.19,5.86-8.88,14.73-14.34,24.92-17.3,8.17-2.38,16.58-3.61,25.22-3.69,6.11-.06,11.58.57,16.41,1.9,2.56.71,4.53,2.23,5.92,4.56.18.3.3.62.35.96.37,2.34.33,3.63,2.42,5.21,3.31,2.47,5.52,4.08,7.3,6.61.18.26.28.57.28.89v2.52c0,.36.15.7.4.96,3.17,3.11,7.31,5.75,9.58,7.6,1.89,1.55,5.12,4.38,4.33,7.13ZM82.86,65.48v-.07s.01-.04.02-.06c.01-.03.02-.06.05-.09,0-.01.01-.03.02-.04.04-.04.08-.07.13-.09,3.68-1.45,6.71-2.6,10.68-1.59.46.12.84.45,1.03.88,1.37,3.18,2.76,5.06,5.72,8.21.13.15.13.36.01.51h-.01c-.12.13-.31.15-.45.05l-5-3.27c-.12-.08-.25-.14-.38-.19-2.01-.74-5.34-.51-7.39-2.03-1.25-.92-2.64-1.56-4.16-1.9-.05-.02-.1-.04-.14-.07-.01,0-.02-.03-.03-.04-.03-.02-.05-.05-.06-.09,0,0-.02-.03-.02-.05-.01-.02-.02-.05-.02-.07Z"/>
    </g>
    <path class="cls-4" d="M96.36,65.38s-.01-.05-.01-.07c0,.02,0,.05.01.07Z"/>
    <path class="cls-4" d="M96.44,65.53s-.05-.06-.06-.09c.02.03.04.06.06.09Z"/>
    <path class="cls-4" d="M96.61,65.63c-.05-.01-.1-.04-.14-.07.04.03.09.06.14.07Z"/>
    <path class="cls-4" d="M96.34,65.21s0,.02,0,.03c0-.02,0-.04.01-.06,0,0,0,.01-.01.02Z"/>
    <path class="cls-2" d="M96.41,65.09s.02-.03.03-.04c-.01.01-.02.02-.03.04Z"/>
    <path class="cls-3" d="M197.78,93.81c0,6.74-5.35,10.63-15.59,10.63h-20.16v-38.98h19.04c9.74,0,14.76,4.06,14.76,10.13,0,3.9-2,6.9-5.18,8.57,4.34,1.39,7.13,4.73,7.13,9.63ZM171,72.26v9.19h8.96c4.4,0,6.79-1.56,6.79-4.62s-2.39-4.57-6.79-4.57h-8.96ZM188.71,92.86c0-3.28-2.51-4.84-7.18-4.84h-10.52v9.63h10.52c4.68,0,7.18-1.45,7.18-4.79Z"/>
    <path class="cls-3" d="M229.47,104.45l-7.52-10.86h-8.3v10.86h-9.02v-38.98h16.87c10.41,0,16.93,5.4,16.93,14.14,0,5.85-2.95,10.13-8.02,12.31l8.74,12.53h-9.69ZM221.01,72.82h-7.35v13.59h7.35c5.51,0,8.3-2.56,8.3-6.79s-2.78-6.79-8.3-6.79Z"/>
    <path class="cls-3" d="M245.56,65.47h9.02v38.98h-9.02v-38.98Z"/>
    <path class="cls-3" d="M271.9,72.82h-12.47v-7.35h33.96v7.35h-12.47v31.63h-9.02v-31.63Z"/>
    <path class="cls-3" d="M298.24,65.47h9.02v38.98h-9.02v-38.98Z"/>
    <path class="cls-3" d="M313.44,100.6l3.06-6.79c3.28,2.39,8.18,4.06,12.86,4.06,5.35,0,7.52-1.78,7.52-4.18,0-7.29-22.66-2.28-22.66-16.76,0-6.63,5.35-12.14,16.43-12.14,4.9,0,9.91,1.17,13.53,3.45l-2.78,6.85c-3.62-2.06-7.35-3.06-10.8-3.06-5.34,0-7.41,2-7.41,4.45,0,7.18,22.66,2.23,22.66,16.54,0,6.51-5.4,12.08-16.54,12.08-6.18,0-12.42-1.84-15.87-4.51Z"/>
    <path class="cls-3" d="M387.77,65.47v38.98h-9.02v-15.98h-17.71v15.98h-9.02v-38.98h9.02v15.37h17.71v-15.37h9.02Z"/>
    <path class="cls-2" d="M412.78,65.47h9.02v31.63h19.54v7.35h-28.56v-38.98Z"/>
    <path class="cls-2" d="M443.29,84.96c0-11.58,9.02-20.16,21.33-20.16s21.33,8.52,21.33,20.16-9.08,20.16-21.33,20.16-21.33-8.57-21.33-20.16ZM476.81,84.96c0-7.41-5.23-12.47-12.19-12.47s-12.19,5.07-12.19,12.47,5.23,12.47,12.19,12.47,12.19-5.07,12.19-12.47Z"/>
    <path class="cls-2" d="M490.29,84.96c0-11.58,9.02-20.16,21.33-20.16s21.33,8.52,21.33,20.16-9.08,20.16-21.33,20.16-21.33-8.57-21.33-20.16ZM523.81,84.96c0-7.41-5.23-12.47-12.19-12.47s-12.19,5.07-12.19,12.47,5.23,12.47,12.19,12.47,12.19-5.07,12.19-12.47Z"/>
    <path class="cls-2" d="M553.93,89.13l-5.23,5.46v9.86h-8.96v-38.98h8.96v18.21l17.26-18.21h10.02l-16.15,17.37,17.09,21.6h-10.52l-12.47-15.31Z"/>
    <path class="cls-2" d="M580.05,87.3v-21.83h9.02v21.49c0,7.41,3.23,10.47,8.69,10.47s8.69-3.06,8.69-10.47v-21.49h8.91v21.83c0,11.47-6.57,17.82-17.65,17.82s-17.65-6.35-17.65-17.82Z"/>
    <path class="cls-2" d="M658.06,79.61c0,8.69-6.51,14.09-16.93,14.09h-7.85v10.75h-9.02v-38.98h16.87c10.41,0,16.93,5.4,16.93,14.14ZM648.93,79.61c0-4.29-2.78-6.79-8.3-6.79h-7.35v13.53h7.35c5.51,0,8.3-2.51,8.3-6.74Z"/>
    <g>
      <path class="cls-2" d="M165.13,144.36v-11.49h2.12v11.41c0,4.76,2.24,6.93,6.13,6.93s6.16-2.18,6.16-6.93v-11.41h2.06v11.49c0,5.76-3.1,8.74-8.22,8.74s-8.25-2.98-8.25-8.74Z"/>
      <path class="cls-2" d="M194.22,143.5l-4.1,4.15v5.27h-2.12v-20.06h2.12v12.12l11.78-12.12h2.44l-8.68,9.08,9.28,10.98h-2.52l-8.2-9.43Z"/>
      <path class="cls-2" d="M232.64,147.57c0,3.41-2.52,5.36-7.54,5.36h-9.23v-20.06h8.65c4.47,0,7.05,1.89,7.05,5.16,0,2.29-1.23,3.81-3.07,4.56,2.58.57,4.13,2.26,4.13,4.99ZM217.99,134.62v7.28h6.39c3.21,0,5.07-1.23,5.07-3.64s-1.86-3.64-5.07-3.64h-6.39ZM230.52,147.4c0-2.61-1.92-3.75-5.44-3.75h-7.08v7.54h7.08c3.52,0,5.44-1.15,5.44-3.78Z"/>
      <path class="cls-2" d="M237.3,144.36v-11.49h2.12v11.41c0,4.76,2.24,6.93,6.13,6.93s6.16-2.18,6.16-6.93v-11.41h2.06v11.49c0,5.76-3.1,8.74-8.22,8.74s-8.25-2.98-8.25-8.74Z"/>
      <path class="cls-2" d="M258.25,150.49l.83-1.63c1.43,1.4,3.98,2.44,6.62,2.44,3.75,0,5.39-1.58,5.39-3.55,0-5.5-12.35-2.12-12.35-9.54,0-2.95,2.29-5.5,7.39-5.5,2.26,0,4.61.66,6.22,1.78l-.72,1.69c-1.72-1.12-3.73-1.66-5.5-1.66-3.67,0-5.3,1.63-5.3,3.64,0,5.5,12.35,2.18,12.35,9.49,0,2.95-2.35,5.47-7.48,5.47-3.01,0-5.96-1.06-7.45-2.61Z"/>
      <path class="cls-2" d="M277.79,132.87h2.12v20.06h-2.12v-20.06Z"/>
      <path class="cls-2" d="M303.2,132.87v20.06h-1.75l-12.9-16.28v16.28h-2.12v-20.06h1.75l12.92,16.28v-16.28h2.09Z"/>
      <path class="cls-2" d="M323.92,151.09v1.83h-14.19v-20.06h13.75v1.83h-11.63v7.14h10.37v1.8h-10.37v7.45h12.06Z"/>
      <path class="cls-2" d="M326.98,150.49l.83-1.63c1.43,1.4,3.98,2.44,6.62,2.44,3.75,0,5.39-1.58,5.39-3.55,0-5.5-12.35-2.12-12.35-9.54,0-2.95,2.29-5.5,7.39-5.5,2.26,0,4.61.66,6.22,1.78l-.72,1.69c-1.72-1.12-3.73-1.66-5.5-1.66-3.67,0-5.3,1.63-5.3,3.64,0,5.5,12.35,2.18,12.35,9.49,0,2.95-2.35,5.47-7.48,5.47-3.01,0-5.96-1.06-7.45-2.61Z"/>
      <path class="cls-2" d="M344.6,150.49l.83-1.63c1.43,1.4,3.98,2.44,6.62,2.44,3.75,0,5.39-1.58,5.39-3.55,0-5.5-12.35-2.12-12.35-9.54,0-2.95,2.29-5.5,7.39-5.5,2.26,0,4.61.66,6.22,1.78l-.72,1.69c-1.72-1.12-3.73-1.66-5.5-1.66-3.67,0-5.3,1.63-5.3,3.64,0,5.5,12.35,2.18,12.35,9.49,0,2.95-2.35,5.47-7.48,5.47-3.01,0-5.96-1.06-7.45-2.61Z"/>
      <path class="cls-2" d="M371.65,132.87h8.17c6.42,0,10.75,4.13,10.75,10.03s-4.33,10.03-10.75,10.03h-8.17v-20.06ZM379.7,151.09c5.33,0,8.77-3.38,8.77-8.2s-3.44-8.2-8.77-8.2h-5.93v16.39h5.93Z"/>
      <path class="cls-2" d="M395.31,132.87h2.12v20.06h-2.12v-20.06Z"/>
      <path class="cls-2" d="M417.66,152.93l-4.58-6.45c-.52.06-1.03.09-1.61.09h-5.39v6.36h-2.12v-20.06h7.51c5.1,0,8.2,2.58,8.2,6.88,0,3.15-1.66,5.36-4.58,6.3l4.9,6.88h-2.32ZM417.55,139.75c0-3.21-2.12-5.04-6.13-5.04h-5.33v10.06h5.33c4.01,0,6.13-1.86,6.13-5.01Z"/>
      <path class="cls-2" d="M438.86,151.09v1.83h-14.18v-20.06h13.75v1.83h-11.63v7.14h10.37v1.8h-10.37v7.45h12.06Z"/>
      <path class="cls-2" d="M441.95,142.9c0-5.87,4.47-10.2,10.52-10.2,2.92,0,5.56.97,7.34,2.92l-1.35,1.35c-1.63-1.66-3.64-2.38-5.93-2.38-4.84,0-8.48,3.55-8.48,8.31s3.64,8.31,8.48,8.31c2.29,0,4.3-.72,5.93-2.41l1.35,1.35c-1.78,1.95-4.41,2.95-7.36,2.95-6.02,0-10.49-4.33-10.49-10.2Z"/>
      <path class="cls-2" d="M467.97,134.7h-7.05v-1.83h16.22v1.83h-7.05v18.23h-2.12v-18.23Z"/>
      <path class="cls-2" d="M478.45,142.9c0-5.85,4.47-10.2,10.54-10.2s10.52,4.33,10.52,10.2-4.5,10.2-10.52,10.2-10.54-4.36-10.54-10.2ZM497.4,142.9c0-4.79-3.58-8.31-8.4-8.31s-8.45,3.52-8.45,8.31,3.61,8.31,8.45,8.31,8.4-3.52,8.4-8.31Z"/>
      <path class="cls-2" d="M517.97,152.93l-4.59-6.45c-.52.06-1.03.09-1.6.09h-5.39v6.36h-2.12v-20.06h7.51c5.1,0,8.2,2.58,8.2,6.88,0,3.15-1.66,5.36-4.58,6.3l4.9,6.88h-2.32ZM517.85,139.75c0-3.21-2.12-5.04-6.13-5.04h-5.33v10.06h5.33c4.01,0,6.13-1.86,6.13-5.01Z"/>
      <path class="cls-2" d="M531.57,145.99v6.93h-2.09v-6.93l-8.02-13.12h2.26l6.88,11.26,6.88-11.26h2.12l-8.02,13.12Z"/>
      <path class="cls-2" d="M564.75,153.24l-2.78-2.87c-1.69,1.81-3.98,2.72-6.71,2.72-3.93,0-6.73-2.06-6.73-5.1,0-2.38,1.38-4.13,5.04-6.25-1.95-2.01-2.52-3.21-2.52-4.76,0-2.55,1.98-4.27,5.07-4.27,2.84,0,4.67,1.49,4.67,3.98,0,2.01-1.2,3.41-4.47,5.3l5.5,5.67c.6-1.06,1.06-2.35,1.35-3.87l1.66.52c-.37,1.8-.97,3.35-1.78,4.61l2.87,2.95-1.18,1.35ZM560.77,149.14l-6.05-6.22c-3.21,1.83-4.18,3.09-4.18,4.87,0,2.18,1.95,3.61,4.84,3.61,2.18,0,4.01-.75,5.39-2.26ZM552.95,136.97c0,1.17.43,2.01,2.26,3.87,2.89-1.66,3.84-2.67,3.84-4.1s-1.06-2.49-2.92-2.49c-2.01,0-3.18,1.12-3.18,2.72Z"/>
      <path class="cls-2" d="M593.83,147.57c0,3.41-2.52,5.36-7.54,5.36h-9.23v-20.06h8.66c4.47,0,7.05,1.89,7.05,5.16,0,2.29-1.23,3.81-3.07,4.56,2.58.57,4.13,2.26,4.13,4.99ZM579.19,134.62v7.28h6.39c3.21,0,5.07-1.23,5.07-3.64s-1.86-3.64-5.07-3.64h-6.39ZM591.71,147.4c0-2.61-1.92-3.75-5.44-3.75h-7.08v7.54h7.08c3.52,0,5.44-1.15,5.44-3.78Z"/>
      <path class="cls-2" d="M598.67,132.87h2.12v18.23h11.23v1.83h-13.35v-20.06Z"/>
      <path class="cls-2" d="M613.37,142.9c0-5.85,4.47-10.2,10.54-10.2s10.52,4.33,10.52,10.2-4.5,10.2-10.52,10.2-10.54-4.36-10.54-10.2ZM632.31,142.9c0-4.79-3.58-8.31-8.4-8.31s-8.45,3.52-8.45,8.31,3.61,8.31,8.45,8.31,8.4-3.52,8.4-8.31Z"/>
      <path class="cls-2" d="M653.31,142.9h2.03v7.65c-1.89,1.69-4.58,2.55-7.36,2.55-6.1,0-10.57-4.33-10.57-10.2s4.47-10.2,10.6-10.2c3.04,0,5.67.97,7.45,2.89l-1.32,1.35c-1.69-1.66-3.7-2.35-6.05-2.35-4.96,0-8.6,3.52-8.6,8.31s3.64,8.31,8.57,8.31c1.92,0,3.7-.43,5.24-1.55v-6.76Z"/>
    </g>
    <rect class="cls-3" x="162.04" y="116.09" width="496.03" height="5"/>
  </g>
</svg>