<?xml version="1.0" encoding="UTF-8"?>
<svg id="Layer_2" data-name="Layer 2" xmlns="http://www.w3.org/2000/svg" viewBox="0 0 168.08 168.08">
  <defs>
    <style>
      .cls-1 {
        fill: #101828;
      }

      .cls-2 {
        fill: #1e8e6c;
      }
    </style>
  </defs>
  <g id="Layer_1-2" data-name="Layer 1">
    <rect class="cls-1" x="0" width="168.08" height="168.08"/>
    <g>
      <path class="cls-2" d="M122.85,88.24c-3.06.91-6.82,2.63-11.26,5.15-1.08.61-1.77,1.16-2.08,1.67-.15.25-.18.55-.09.83.87,2.45,3.61,3.86,5.84,4.64.05.02.09.02.14.02.02,0,.03,0,.05,0,.02,0,.04,0,.07-.01,0,0,.01,0,.02-.01.03-.01.05-.03.07-.04.02-.01.04-.02.06-.04s.03-.04.04-.06c.02-.02.03-.04.04-.07,0,0,0-.01.01-.02,0-.02,0-.04.01-.07,0-.02,0-.03,0-.05,0-.05,0-.09-.02-.14l-.52-1.52s-.02-.09-.02-.13c0,0,0-.01,0-.02,0-.04.01-.07.03-.11,0-.01.02-.03.03-.04.02-.02.03-.04.05-.06.02-.02.04-.03.07-.04.01,0,.03-.02.04-.02.04-.01.07-.02.11-.01,0,0,.01,0,.02,0,.04,0,.09.01.13.04,2.81,1.4,5.49,2.96,6.93,5.93.03.06.07.11.12.16,0,0,0,0,0,0,.04.03.08.05.12.08.02,0,.03.02.05.03.03.01.06.01.1.02.03,0,.07.02.1.02.02,0,.04-.01.06-.01.05,0,.1-.01.14-.04,0,0,0,0,0,0,.06-.03.11-.07.16-.12,1.95-2.1,2.9-4.64,2.88-7.64,0-.1.06-.19.16-.22l.21-.07s.06-.01.09-.01c.02,0,.04,0,.07,0,.02,0,.04,0,.06.02.02,0,.04.01.06.02.02.01.03.02.05.04.02.01.03.03.04.04.01.02.02.04.03.06.01.03.03.05.03.08.14.67.34,1.11.61,1.3.04.03.09.04.13.05,0,0,.01,0,.02,0,.01,0,.02,0,.03,0,.02,0,.04,0,.06,0,.02,0,.03-.01.05-.02.02,0,.03-.02.05-.03.02-.01.03-.02.04-.04,0,0,.02-.01.02-.02,0,0,0-.01,0-.02.03-.04.05-.08.05-.13.26-3.08-.17-10.88-5.38-9.33Z"/>
      <path class="cls-2" d="M128.1,80.17c-.03.16-.05.32-.08.48-.1.65-.17,1.28-.21,1.85-.02.27-.03.53-.03.78,0,0,0,0,0,0-.01,1.27.17,2.13.52,2.19.1.02.22-.04.33-.16,0,0,0,0,.01-.01.11-.12.23-.3.35-.53,0,0,0-.01,0-.02.07-.14.14-.3.21-.48.02-.04.04-.09.05-.14.05-.15.11-.3.16-.46.08-.25.16-.51.23-.79.08-.31.16-.63.22-.97.06-.3.12-.62.17-.94.4-2.58.28-4.74-.28-4.83-.03,0-.07,0-.11,0-.07.02-.15.07-.23.15-.31.32-.65,1.1-.94,2.14-.07.26-.14.54-.21.82-.07.29-.13.59-.18.9Z"/>
      <path class="cls-2" d="M147.24,0H0v168.08h168.08V0h-20.84ZM45.05,23.2s0-.07.03-.1c0,0,.02-.03.04-.04,0-.02.03-.05.04-.06.02-.02.05-.03.07-.04.02,0,.03-.02.05-.03.04,0,.07,0,.1-.02h.03s.08.02.13.04l8.73,4.39c.22.11.32.38.22.61-1.07,2.48-.71,4.43,1.08,5.87,3.72,2.97,9.79-1.93,6.83-5.9-.59-.8-1.34-1.39-2.23-1.79-.25-.11-.38-.4-.28-.66l3.92-10.98c.02-.06.06-.1.09-.14,0,0,.03-.02.05-.03.02-.02.05-.05.07-.06.02,0,.05,0,.07-.02.02,0,.05,0,.07,0,.03,0,.07,0,.09,0,.02,0,.04,0,.06,0,.06.02.1.05.14.08l8.04,8.05c.15.15.17.37.07.54-1.51,2.4-2.44,5.16.39,7.08,3.12,2.11,7.04.88,8.27-2.68.48-1.38-.06-2.85-1.61-4.44-.31-.31-.35-.77-.12-1.12l6.48-10.23s.07-.07.11-.07c.02,0,.05,0,.07,0,.02,0,.05,0,.07,0,.04.02.07.05.1.08l5.55,10.23c.12.21.1.47-.05.67l-1.96,2.6c-.07.1-.11.22-.12.34-.16,2.28.82,3.91,2.91,4.9,4,1.88,6.89-1.92,5.8-5.65-.11-.38-.61-1-.84-1.5-.09-.2-.04-.44.13-.58l7.76-6.33s.07-.04.1-.06h.03s.06,0,.08,0c.02,0,.03,0,.05,0,.02,0,.04,0,.06.03.02,0,.04.02.05.04,0,0,.03.02.04.03.02.03.03.06.04.08,0,0,0,0,0,.02,0,.04,0,.07,0,.11l-3.69,21.69c0,.06-.04.09-.07.13-.05.03-.09.04-.14.04h0c-14.98-2.83-30.36-1.29-44.68,4.03-1.66.62-3.14,1.3-4.43,2.03-.05.02-.1.03-.15.05-.04,0-.07,0-.1,0-.04,0-.07,0-.1,0-.04,0-.07,0-.1-.03-.03,0-.06-.03-.08-.05-.03,0-.06-.04-.08-.06-.03-.03-.05-.06-.07-.08-.04-.04-.07-.08-.08-.13l-7.1-20.77s-.02-.08-.02-.13c0,0,0-.02,0-.03ZM130.61,74.69c-.3,1.05-.37,2.28-.22,3.67.43,4.1-.14,7.81-2.11,11.57-.31.59-.4,1.25-.26,1.91,0,.06.22,1.07.63,3.02,1.12,5.27-1.6,10.24-5.99,13.08-1.61,1.02-2.5,1.63-2.69,1.79-.03.03-.05.04-.07.05-.02,0-.04.03-.06.03-.03,0-.05,0-.07.02h-.07s-.05,0-.07,0c-.02,0-.05-.02-.07-.03-.02,0-.04-.02-.06-.04s-.04-.03-.06-.05c-.1-.13-.18-.34-.2-.64-.14-1.22-2.75-2.87-3.79-3.41-.03,0-.07-.02-.09-.02h-.03s-.05,0-.07.02h-.02s0,0-.02.02c-.02,0-.03,0-.04.03,0,0-.02.02-.03.03,0,0-.02.02-.02.03h0s-.02.06-.02.07c0,0,0,.02,0,.03,0,.04,0,.07.02.1,1.11,2.29,3.59,6.36,4.65,9.27,2.79,7.64,2.39,15.23-1.2,22.78-.02.05-.06.08-.1.11,0,0-.02,0-.03.02-.05.02-.09.04-.15.04-.02,0-.04,0-.06-.02-.02,0-.04,0-.06,0-.05-.03-.08-.07-.11-.1,0,0-.02-.03-.02-.04-.03-.05-.05-.09-.04-.15.14-2.66-.44-5.38-1.73-8.19-.02-.04-.06-.07-.09-.08-.02,0-.03,0-.04,0s-.03,0-.04,0c-.02,0-.03,0-.05.02,0,0-.03,0-.04,0-.02,0-.02.02-.04.03t-.02.02s-.06.07-.06.12c.02,11.39-3.65,21.92-12.64,29.26-.04.03-.08.05-.09.04-.03-.02-.05-.03-.07-.03-.03,0-.06-.02-.08-.04-.02,0-.03-.02-.05-.03,0,0-.03-.02-.04-.03,0-.02,0-.03-.02-.05s-.02-.03-.03-.05v-.05s0-.04,0-.06c0-.03,0-.06.03-.09,3.46-7.1,4.23-14.47,2.31-22.11-2.32-9.26-7.44-15.35-13.97-22.33-6.63-7.08-11.3-13.75-12.4-22.97-.13-1.06-.27-1.91-.41-2.56,0-.04-.03-.07-.07-.09,0,0,0,0-.02,0-.02,0-.03-.02-.04-.02h-.06s-.03,0-.04.02c0,0-.02,0-.03,0-.03.03-.05.06-.06.09-1.24,5.2-1.23,10.21.03,14.99.02.06,0,.1,0,.16,0,0,0,.03-.02.04,0,.04-.04.08-.07.11,0,0,0,0,0,.02-.02,0-.04.02-.06.03-.02,0-.04.02-.06.03h-.02s-.09,0-.14,0c-.02,0-.03,0-.04,0-.06-.02-.1-.05-.13-.08-4.4-5.08-7.93-10.87-8.12-17.76-.22-8.18,5.39-18.38,11.88-23.57,1.17-.93,2.08-1.75,2.75-2.47.05-.04.1-.07.16-.08.02,0,.03,0,.05,0,.05,0,.1,0,.16.02h.02s.04.03.06.04c.02.02.04.03.06.04t0,.02s.06.07.06.1c.02,0,.03.03.03.04,0,.02,0,.03,0,.05,0,.06,0,.12-.02.18-2.5,5.87-2.34,13,2.31,17.73.03.03.07.04.1.05h.05s.03-.02.04-.03c.02,0,.04,0,.05-.02t.02-.02s0-.02,0-.03c.02-.03.04-.07.03-.11-.53-2.44-.43-4.92.32-7.43,0-.05.03-.08.06-.11.02-.02.04-.03.06-.04,0-.02.03-.04.05-.05.04-.02.07-.03.12-.04.04,0,.08,0,.12.02.02,0,.04.02.06.03s.04.02.06.03c.04.03.07.06.08.1,2.17,4,6.1,5.7,9.66,8.3.45.33.83.72,1.13,1.18l.45.66s.02.03.04.04c0,0,.02,0,.02,0,.02,0,.03,0,.05,0s.03,0,.05,0c0,0,0,0,.02,0,.02,0,.03-.02.04-.04,1.39-2.59,3.23-4.47,5.54-5.65.03-.02.07-.03.09-.03h.03s.05,0,.07.02c0,0,.02,0,.03.02s.03.02.04.03c0,0,.02.02.03.04,0,0,0,.02.02.03,0,.03,0,.05.02.07v.03s0,.07-.03.09l-.96,1.91s-.02.05-.03.07v.02s0,.03,0,.05v.05s.02.03.02.05c0,0,.02.03.03.04,0,0,.02.02.03.03.02.02.03.03.05.04h0s.05.03.07.03l7.16,1.22c.06,0,.1.04.1.1,0,.06-.04.1-.09.1-2.41.54-4.9.7-7.47.49-.33-.02-.6.2-.66.51l-.07.44c-.06.34.17.67.51.73,2.7.51,5.74.6,9.14.28.13,0,.24.02.32.09.03.02.05.06.07.09,0,0,0,.02,0,.04v.09s0,.03-.02.04c0,.02,0,.03-.02.05,0,0-.02.02-.03.03-.03.03-.06.06-.08.07-2.89,1.05-5.85,1.59-8.88,1.63-.07,0-.12,0-.18.04-.03,0-.04.02-.06.03-.03.02-.06.03-.07.04,0,0,0,.02-.02.03-.03.02-.05.05-.07.07-.02.03-.04.05-.05.07-.02.03-.02.06-.03.09,0,.03-.02.07-.02.09,0,0,0,.02,0,.03,0,.03,0,.06.02.08,0,.03,0,.05,0,.07.02.06.05.11.08.16l.35.43c.34.42.86.64,1.41.59l6.73-.6s.08.02.12.04c0,0,.02,0,.02.02.02.02.03.05.04.07,0,.03.03.06.03.07v.03s-.03.09-.07.12c-1.64,1.42-3.63,2.38-5.99,2.87-.07.02-.13.06-.18.1-.02,0-.03.02-.04.04-.04.05-.07.09-.08.16h0v.02s0,.05,0,.07v.08s0,0,0,.02c0,.06.05.11.08.16,0,0,.02.03.04.04.05.05.1.08.18.09l4.08.9c.33.07.66.08.99.02,2.73-.5,7.49-2.03,9.36-4.29,3.55-4.27.7-7.07-3.1-8.89-1.51-.72-2.55-2.36-2.93-3.95,0-.04,0-.08,0-.13,0,0,0-.03.02-.04,0-.03,0-.06.03-.08,0-.02.03-.04.04-.06.02-.02.03-.04.05-.06.02-.02.04-.03.07-.04.02,0,.04-.03.07-.03.03,0,.06-.02.08-.02,0,0,.03,0,.04,0,.05,0,.09,0,.13.02l2.44.99c.1.05.21.06.33.04,2.45-.33,5.25-.32,8.39.02.06,0,.11,0,.16-.03h.02s.02-.02.04-.03c.02,0,.04-.02.06-.04,0-.02.03-.04.04-.05,0-.02.03-.04.04-.06,0-.03,0-.05.02-.07,0,0,0-.02,0-.04v-.02c0-.06,0-.11-.03-.16-.07-.16-.25-.35-.53-.58-2.47-2.04-6.48-5.29-12-9.76-.34-.28-.85-.8-1.51-1.55-.13-.16-.13-.38,0-.53l.7-.77c.13-.16.2-.36.16-.56-.54-2.95-6.63-6.67-8.79-7.94-.16-.08-.33-.15-.51-.18l-.88-.15c-.33-.06-.65-.2-.93-.39-5.15-3.75-13.23-5.23-18.2-.53-.14.13-.34.13-.48,0-2.04-1.82-4.35-3.21-6.92-4.15-5.23-1.93-11.22-.18-11.76,6.15-.23,2.56.77,7.08,3.55,8.09.05,0,.09,0,.13,0,0,0,0,0,.02,0t0,0s.02-.02.04-.02c0,0,.02-.02.03-.03s.02-.02.02-.03c0-.02.02-.03.03-.04h0v-.03s.02-.08,0-.13c-1.37-3.63-2.81-10.61,3.01-11.1,3.73-.31,6.69,1.06,8.9,4.09.05.07.07.14.05.21,0,.02,0,.03,0,.04,0,.03,0,.05-.03.07,0,.03-.03.04-.05.06,0,0-.02.02-.03.03-.03.02-.07.04-.1.05s-.07,0-.11,0c-1.68-.29-3.42-.22-5.23.21-.04,0-.07.03-.1.06,0,0,0,.02-.02.03-.02.02-.04.06-.05.08,0,0,0,0,0,.02v.09h0v.02s.04.07.07.09c0,0,0,0,.02.02.03.03.07.05.1.06,1.46.3,2.83.86,4.14,1.68.03.02.06.04.07.07.03.02.05.03.07.06.02.02.04.04.05.07.02.02.04.04.06.07.02.02.03.05.05.07,0,.02.03.05.04.07,0,.02.02.05.02.07,0,.03.02.06.03.08,0,.02,0,.05,0,.07s0,.06,0,.08,0,.06,0,.08v.08s-.02.06-.03.08c0,.03,0,.06-.02.08-.02.03-.03.06-.05.08,0,.03-.03.06-.05.08-1.07,1.62-2.3,3.14-3.69,4.57-4.66,4.8-11.29,10.55-14.83,17.42-2.22,4.3-3.21,8.91-2.96,13.83,0,.03,0,.06.04.06.03,0,.06,0,.07-.04.29-.66.56-1.45.8-2.37,1.09-4.08,2.98-7.72,5.7-10.9.03-.04.07-.06.11-.07,0,0,.02,0,.03,0,.04,0,.07,0,.11,0,0,0,.02,0,.03,0,.02,0,.04,0,.05.02.02,0,.04.02.05.03,0,0,.02,0,.02.02.03.03.05.06.07.09,0,0,0,.02,0,.03,0,.05.02.09,0,.14-1.53,5.97-1.25,11.73.83,17.28,2.24,5.92,6.89,11.06,11.84,15.07,5.2,4.19,10.15,7.79,14.66,12.84,9.61,10.74,12.36,25.27,4.79,37.96-.13.21-.25.34-.35.39-.04.02-.08.03-.12.03-.02,0-.04,0-.06,0-.02,0-.05,0-.07,0-.02,0-.04-.02-.06-.03-.02,0-.04-.02-.05-.04-.02,0-.03-.04-.05-.06,0,0-.02-.02-.03-.04-.02-.04-.03-.08-.03-.12-.09-5.53-2.17-10.9-4.81-15.54-4.14-7.28-11.21-12.89-18.85-16.31-.04-.02-.09-.02-.13,0,0,0,0,0,0,0,0,0,0,0-.02.02,0,0,0,.02-.02.02,0,0-.03.02-.04.04h0s-.02.09,0,.14c1.68,3.23,2.37,6.7,2.07,10.38,0,.04-.02.07-.03.1,0,0,0,.02-.02.02,0,.03-.03.05-.05.07-.02,0-.03.02-.05.03,0,0-.03.02-.05.03h-.07s-.03,0-.04,0c-.03,0-.06,0-.08-.03h-.02s-.07-.04-.08-.07c-3.24-3.96-6.73-6.26-11.66-8.86-2.3-1.21-4.19-2.31-5.67-3.32-7.91-5.37-11.39-12.43-12.93-21.71,0-.05-.03-.07-.07-.09,0,0,0,0,0,0h-.04s-.03,0-.04,0h0s-.07.04-.09.08c-1.39,3.13-2.04,6.2-1.91,9.22,0,.03,0,.06-.02.08,0,0,0,.02,0,.03,0,.02-.02.03-.04.05,0,0,0,0-.02,0-.04.04-.08.06-.13.05h-.03s-.09-.03-.13-.07c-.95-1.06-1.97-2.64-3.07-4.73-5.19-9.87-6.01-20.71-1.43-30.78.27-.58.93-1.4,1.2-2.11.02-.05,0-.09-.02-.13h0s-.03-.03-.04-.04c-.02-.02-.02-.03-.04-.04h-.04s-.07,0-.1.02c-2.81,1.99-4.95,4.38-6.45,7.18-.02.04-.06.06-.1.07,0,0-.02,0-.03,0-.02,0-.05,0-.07,0s-.05,0-.07-.03t-.02-.02s-.05-.07-.06-.11c.11-10.71,4.14-19.45,12.09-26.26.98-.83,1.94-1.45,2.89-1.88.04-.02.07-.04.07-.07,0,0,0-.02,0-.03,0-.02,0-.03,0-.05,0,0,0,0,0-.02s0-.02,0-.03c0-.02-.02-.03-.03-.04,0,0,0-.02-.02-.02-.03-.03-.07-.04-.1-.04-2.26.02-4.25.41-5.97,1.17-.07.03-.12.04-.19.03h-.05s-.08-.03-.13-.05c0,0-.03-.02-.05-.04-.02-.02-.04-.04-.06-.06-.02-.02-.04-.04-.05-.07,0-.02-.02-.04-.03-.06,0-.05-.02-.09-.02-.13v-.06c0-.07.02-.12.06-.18,5.45-8.25,13.69-13.33,23.16-16.08,7.59-2.21,15.41-3.36,23.44-3.43,5.68-.06,10.76.53,15.25,1.77,2.38.66,4.21,2.07,5.5,4.24.17.28.28.58.33.89.34,2.17.31,3.37,2.25,4.84,3.08,2.3,5.13,3.79,6.78,6.14.17.24.26.53.26.83v2.34c0,.33.14.65.37.89,2.95,2.89,6.79,5.34,8.9,7.06,1.76,1.44,4.76,4.07,4.02,6.63ZM94.05,60.86v-.07s0-.04.02-.06c0-.03.02-.06.05-.08,0,0,0-.03.02-.04.04-.04.07-.07.12-.08,3.42-1.35,6.24-2.42,9.93-1.48.43.11.78.42.96.82,1.27,2.96,2.57,4.7,5.32,7.63.12.14.12.33,0,.47h0c-.11.12-.29.14-.42.05l-4.65-3.04c-.11-.07-.23-.13-.35-.18-1.87-.69-4.96-.47-6.87-1.89-1.16-.86-2.45-1.45-3.87-1.77-.05-.02-.09-.04-.13-.07,0,0-.02-.03-.03-.04-.03-.02-.05-.05-.06-.08,0,0-.02-.03-.02-.05,0-.02-.02-.05-.02-.07Z"/>
    </g>
  </g>
</svg>