<?xml version="1.0" encoding="UTF-8"?>
<svg id="Layer_2" data-name="Layer 2" xmlns="http://www.w3.org/2000/svg" xmlns:xlink="http://www.w3.org/1999/xlink" viewBox="0 0 51.05 78.81">
  <defs>
    <style>
      .cls-1 {
        fill: none;
      }

      .cls-2 {
        clip-path: url(#clippath-1);
      }

      .cls-3 {
        clip-path: url(#clippath-2);
      }

      .cls-4 {
        fill: #fde6b1;
      }

      .cls-5 {
        fill: #dd8d39;
      }

      .cls-6 {
        clip-path: url(#clippath);
      }

      .cls-7 {
        fill: #0d0839;
      }

      .cls-8 {
        fill: #f7ba22;
      }
    </style>
    <clipPath id="clippath">
      <polygon class="cls-1" points="20.29 6.69 42.95 6.69 30.77 28.5 44.36 28.5 7.96 72.13 20.71 41.11 6.69 41.11 20.29 6.69"/>
    </clipPath>
    <clipPath id="clippath-1">
      <polygon class="cls-1" points="20.29 6.69 42.95 6.69 30.77 28.5 44.36 28.5 7.96 72.13 20.71 41.11 6.69 41.11 20.29 6.69"/>
    </clipPath>
    <clipPath id="clippath-2">
      <polygon class="cls-1" points="20.29 6.69 42.95 6.69 30.77 28.5 44.36 28.5 7.96 72.13 20.71 41.11 6.69 41.11 20.29 6.69"/>
    </clipPath>
  </defs>
  <g id="Layer_1-2" data-name="Layer 1">
    <path class="cls-7" d="M7.96,78.81c-1.22,0-2.41-.33-3.45-.96-2.84-1.71-3.99-5.19-2.73-8.27l8.96-21.79h-4.05c-2.22,0-4.28-1.09-5.53-2.93-1.25-1.83-1.5-4.15-.69-6.21L14.07,4.23c1.01-2.57,3.45-4.23,6.22-4.23h22.66c2.36,0,4.57,1.27,5.77,3.3,1.2,2.04,1.22,4.58.07,6.65l-6.63,11.86h2.21c2.58,0,4.96,1.51,6.05,3.85,1.1,2.34.73,5.13-.92,7.12L13.1,76.41c-1.27,1.53-3.15,2.4-5.13,2.4Z"/>
    <path class="cls-7" d="M7.96,74.81c-.47,0-.95-.13-1.39-.39-1.14-.68-1.6-2.09-1.1-3.32l11.22-27.31H6.69c-.89,0-1.72-.44-2.22-1.18-.5-.74-.6-1.67-.28-2.5L17.79,5.7c.41-1.03,1.4-1.7,2.5-1.7h22.66c.95,0,1.83.5,2.32,1.33.48.82.49,1.84.03,2.67l-9.95,17.82h9.02c1.04,0,1.99.6,2.43,1.55.44.94.3,2.06-.37,2.86L10.02,73.85c-.53.63-1.29.97-2.06.97Z"/>
    <polygon class="cls-4" points="20.29 6.69 42.95 6.69 30.77 28.5 44.36 28.5 7.96 72.13 20.71 41.11 6.69 41.11 20.29 6.69"/>
    <g class="cls-6">
      <polygon class="cls-8" points="14.9 16.03 22.41 9.94 38.84 7.68 23.97 32.75 38.84 29.77 16.89 62.92 6.69 74.96 7.42 69.94 18.99 42.38 5.12 42.07 14.9 16.03"/>
    </g>
    <g class="cls-2">
      <polygon class="cls-5" points="19.18 5.62 22.41 9.94 12.59 37.1 26.02 37.35 5.87 76.6 5.87 73.61 17.94 42.63 4.31 42.63 16.07 12.03 19.18 5.62"/>
    </g>
    <g class="cls-3">
      <polygon class="cls-5" points="19.18 5.62 22.41 9.94 12.59 37.1 26.02 37.35 5.87 76.6 5.87 73.61 17.94 42.63 4.31 42.63 16.07 12.03 19.18 5.62"/>
    </g>
  </g>
</svg>